<?xml version="1.0" encoding="utf-8"?>
<!-- Generator: Adobe Illustrator 24.1.0, SVG Export Plug-In . SVG Version: 6.00 Build 0)  -->
<svg version="1.1" id="Layer_1" xmlns="http://www.w3.org/2000/svg" xmlns:xlink="http://www.w3.org/1999/xlink" x="0px" y="0px"
	 viewBox="0 0 177.8 41.1" style="enable-background:new 0 0 177.8 41.1;" xml:space="preserve">
<style type="text/css">
	.st0{fill:#515666;}
</style>
<g>
	<g>
		<path class="st0" d="M106.1,25.3v1h7.1v4.5c0,6.4-4.9,9.3-9.4,9.3c-3.7,0-5.7-0.7-7.9-2.6c-3.2-2.9-4.8-8.4-4.8-16.7
			c0-8.5,1.3-19.7,12.8-19.7c8.9,0,11.3,6.9,12,11.1v0.1h0.9V1h-1h-0.1v0.1c-0.5,0.7-1,1.1-2.4,1.1c-1.1,0-1.9-0.4-2.9-0.8
			C109.1,0.8,107.3,0,104,0c-4.9,0-9.3,1.9-13,5.6c-1.1,1.1-2.6,2.7-3.9,5.2c-1.6,3-2.5,6.4-2.5,10c0,7.1,3.5,12,6.4,15
			c3.8,3.8,7.7,5.4,12.9,5.4c4.3,0,6.9-1.3,8.8-2.3c1.2-0.6,2.1-1.1,3.1-1.1c1.1,0,1.4,0.2,2.1,1l0,0h0.9V26.3h4.4v-1H106.1z"/>
	</g>
	<polygon class="st0" points="125.6,1.1 125.6,2.1 131.7,2.1 131.7,39.3 125.6,39.3 125.6,40.4 143.6,40.4 143.6,39.3 137.5,39.3 
		137.5,2.1 143.6,2.1 143.6,1.1 	"/>
	<g>
		<path class="st0" d="M168.8,18c-0.2-0.1-0.3-0.1-0.5-0.2l-6.7-2.1c-4-1.3-7.8-2.9-7.8-7.4c0-5.8,5.6-7.4,9-7.4
			c5.4,0,9.2,3.8,10.3,10V11h0.9V1h-1v0.1c-0.5,1-0.6,1.1-1.5,1.1c-0.8,0-1.5-0.3-2.4-0.7c-1.4-0.6-3.1-1.4-6.3-1.4
			c-3.5,0-6.6,1.2-8.8,3.3s-3.4,5.1-3.4,8.3c0,4.8,2.8,7.9,9.1,9.8l6.3,1.9c4.8,1.5,7.3,4.1,7.3,8c0,1.5-0.5,8.8-9.6,8.8h-0.1
			c-4,0-10.6,0-13.1-11.7v-0.1h-0.9v12.1h1.1v-0.1c0.3-0.7,0.5-1.1,1.5-1.1c0.9,0,2.3,0.4,3.4,0.8c0.4,0.1,0.8,0.3,1.1,0.4
			c2.6,0.7,3.9,0.8,7,0.8c4.2,0,7.7-1.4,10.4-4c2.4-2.4,3.8-5.6,3.8-9.1C177.8,20.8,171.7,18.9,168.8,18"/>
	</g>
	<path class="st0" d="M62.5,7.9l6.7,17.4H55.9L62.5,7.9z M85.8,39.3h-4.9L65.9,0h-1.5L49.5,39.3H39.2V2.1h6.1v-1H32.9L22.8,30.4
		L12.6,1.1H0v1h6.1v37.2H0v1h13.3v-1H7.2V3.2l13.1,37.5L33.4,2.8v36.5h-6.1v1h29.4v-1h-6.1l4.9-13h14l5,13h-6.1v1h17.2v-1H85.8z"/>
</g>
</svg>
