<?xml version="1.0" encoding="utf-8"?>
<!-- Generator: Adobe Illustrator 24.1.0, SVG Export Plug-In . SVG Version: 6.00 Build 0)  -->
<svg version="1.1" id="Layer_1" xmlns="http://www.w3.org/2000/svg" xmlns:xlink="http://www.w3.org/1999/xlink" x="0px" y="0px"
	 viewBox="0 0 100 100" style="enable-background:new 0 0 100 100;" xml:space="preserve">
<style type="text/css">
	.st0{fill:#40906C;}
	.st1{fill:#A2A2A2;}
	.st2{fill:#A2A2A2;stroke:#FFFFFF;stroke-width:0.75;stroke-miterlimit:10;}
	.st3{fill:#6149AF;}
</style>
<path class="st0" d="M98.3-13.9c0,0.9-0.7,1.7-1.7,1.7c-0.9,0-1.7-0.7-1.7-1.7c0-0.9,0.7-1.7,1.7-1.7C97.6-15.6,98.3-14.8,98.3-13.9
	z"/>
<path class="st0" d="M131.2,28.8c0,0.9-0.7,1.7-1.7,1.7c-0.9,0-1.7-0.7-1.7-1.7s0.7-1.7,1.7-1.7C130.4,27.1,131.2,27.8,131.2,28.8z"
	/>
<g>
	<path class="st0" d="M15.8,66.5c1.2-7,4.6-13.4,9.7-18.2c1.3-1.1,2.7-2.2,4.1-3.1c-0.5-0.5-0.8-1.1-1.1-1.7c-1.5,1-3,2.1-4.4,3.3
		c-5.8,5.4-9.5,12.8-10.6,20.9C14.3,67.1,15,66.7,15.8,66.5z"/>
	<path class="st0" d="M61,40c0.1,0.7,0.1,1.5,0,2.1c6.2,2.4,11.2,6.6,14.6,12.2l1.7-1C73.6,47.1,67.9,42.5,61,40z"/>
</g>
<path class="st0" d="M13.5,34.5c2.1,0.5,4.1-0.8,4.6-2.9s-0.8-4.1-2.9-4.6s-4.1,0.8-4.6,2.9C10.1,32,11.4,34,13.5,34.5z"/>
<g>
	<path class="st1" d="M82.9,46.8h6.5c1.1,0,2-0.5,2-1.1s-0.9-1.1-2-1.1h-6.5c-1.1,0-2,0.5-2,1.1S81.8,46.8,82.9,46.8z"/>
	<path class="st1" d="M82.9,56h6.5c1.1,0,2-0.5,2-1.1s-0.9-1.1-2-1.1h-6.5c-1.1,0-2,0.5-2,1.1S81.8,56,82.9,56z"/>
	<path class="st1" d="M82.9,65.3h6.5c1.1,0,2-0.5,2-1.1c0-0.6-0.9-1.1-2-1.1h-6.5c-1.1,0-2,0.5-2,1.1C80.9,64.8,81.8,65.3,82.9,65.3
		z"/>
	<path class="st1" d="M89.4,72.4h-6c0.3,0.7,0.6,1.4,0.9,2.2h5.2c1.1,0,2-0.5,2-1.1C91.4,72.9,90.5,72.4,89.4,72.4z"/>
	<path class="st1" d="M89.4,81.6h-4.2c0,0.7,0,1.5,0,2.2h4.2c1.1,0,2-0.5,2-1.1S90.5,81.6,89.4,81.6z"/>
	<path class="st1" d="M82.9,37.5h6.5c1.1,0,2-0.5,2-1.1s-0.9-1.1-2-1.1h-6.5c-1.1,0-2,0.5-2,1.1S81.8,37.5,82.9,37.5z"/>
	<path class="st1" d="M82.9,28.8h6.5c1.1,0,2-0.5,2-1.1s-0.9-1.1-2-1.1h-6.5c-1.1,0-2,0.5-2,1.1S81.8,28.8,82.9,28.8z"/>
	<path class="st1" d="M82.9,20h6.5c1.1,0,2-0.5,2-1.1s-0.9-1.1-2-1.1h-6.5c-1.1,0-2,0.5-2,1.1S81.8,20,82.9,20z"/>
	<path class="st1" d="M76.3,66.4c0.4,0.1,0.8,0.3,1.2,0.5V13.7h17.1v76.9H85c0,0.1,0,0.2,0,0.2c0,0.7-0.2,1.3-0.4,2h12.4
		c-0.1-0.7,0-2.2,0-2.2V12.7c0-0.6-0.5-1.1-1.1-1.1h-3.6v-8c0-0.6-0.5-1.1-1.1-1.1h-10C80.5,2.5,80,3,80,3.6v8h-3.6
		c-0.6,0-1.1,0.5-1.1,1.1v53.5C75.6,66.3,75.9,66.3,76.3,66.4z M82.2,4.7h7.7v6.9h-7.7V4.7z"/>
</g>
<g>
	<path class="st2" d="M83.7,80.9c0.9,0,1.6-0.7,1.6-1.6v-5.4c0-3.3-2-6.1-5.2-7.2l-20.8-7.2c-0.3-0.7-1.1-1.1-1.9-0.9L55.1,50
		l4.1-3.5c1.2-1.1,2-4.1,2-5.8c0-0.8-0.7-1.4-1.4-1.4h-0.5c-0.8,0-1.4,0.7-1.4,1.4c0,0.7-0.3,2.8-0.8,3.4l-8.7,7.3
		c-0.4,0.4-0.9,0.5-1.6,0.5h-3.5c-0.5,0-1.1-0.3-1.6-0.5L33,43.9c-0.5-0.4-0.8-1.1-0.8-1.9V21.4h25.8v14.5c0,0.9,0.7,1.6,1.6,1.6H64
		c2,0,3.7-1.6,3.7-3.7v-5.6c0-2-1.6-3.7-3.7-3.7h-2.8v-3.8c0.9-0.7,1.6-1.8,1.6-3V15c0-5.3-4.3-9.6-9.6-9.6h-6.4
		c-2.4-2.2-5.6-3.3-8.8-3.3H24.1c-0.9,0-1.6,0.7-1.6,1.6v4.1c0,0.3,0,0.5,0,0.8h-1.6c-0.9,0-1.6,0.8-1.6,1.6
		c0,5.6,4.1,10.3,9.6,11.1v3.4H26c-2,0-3.7,1.6-3.7,3.7v5.7c0,2,1.6,3.7,3.7,3.7h2.8v4.6c0,1.6,0.7,3.3,2,4.3l4.1,3.4l-2.4,8.5
		c-0.8-0.1-1.6,0.3-1.9,0.9l-11.2,4.1l-1.1,0.1l-8.5,2.8c-3.1,1.1-5.2,3.9-5.2,7.2v23.1c0,0.9,0.7,1.6,1.6,1.6h77.3
		c0.9,0,1.6-0.7,1.6-1.6V85.7c0-0.9-0.7-1.6-1.6-1.6c-0.9,0-1.6,0.7-1.6,1.6v9.6h-9.6v-9.6c0-0.9-0.7-1.6-1.6-1.6
		c-0.9,0-1.6,0.7-1.6,1.6v9.6H52.8l-3-19.1l2.4-4.9l6.5,2.8c0.8,0.4,1.8,0,2.2-0.8c0.1-0.3,0.1-0.5,0.1-0.8L60,63l19.3,6.8
		c1.8,0.7,3,2.3,3,4.2v5.4C82.2,80.2,82.9,80.9,83.7,80.9z M61.2,28H64v-0.1c0.3,0,0.4,0.1,0.4,0.4V34c0,0.3-0.1,0.4-0.4,0.4h-2.8
		V28z M53.2,8.6c3.5-0.1,6.4,2.7,6.4,6.4v2.8c0,0.3-0.1,0.4-0.4,0.4h-7.6v-2.4c0-2.6-0.7-5-2-7.2H53.2z M25.8,5.2h12.1
		c5.8,0,10.4,4.7,10.4,10.4v2.4H45c-0.8-5.6-5.6-9.6-11.1-9.6h-8c-0.1-0.3-0.1-0.5-0.1-0.8V5.2z M29,34.3h-2.8
		c-0.3,0-0.4-0.1-0.4-0.4v-5.6c0-0.3,0.1-0.4,0.4-0.4H29V34.3z M30.5,18.1c-3.8,0-7.1-2.6-7.9-6.4h11.1c3.8,0,7.1,2.7,7.9,6.4H30.5z
		 M37.8,52.3l1.9,1.6c1.1,0.8,2.3,1.4,3.7,1.4h3.5c1.4,0,2.7-0.5,3.7-1.4l1.9-1.6l2.2,7.7l-9.5,4.7L35.7,60L37.8,52.3z M49.4,70.2
		l-2,4.3h-4.5l-2.2-4.3l4.3-1.9L49.4,70.2z M33.5,62.5l7.7,3.9l-8.7,3.9L33.5,62.5z M37,95.8H20.8v-9.6c0-0.9-0.7-1.6-1.6-1.6
		s-1.6,0.7-1.6,1.6v9.6H7.9V74c0-1.9,1.2-3.5,3-4.2l8.8-3.1l0.1,0.3l10.3-3.7l-1.2,9.8c-0.1,0.9,0.5,1.6,1.4,1.8
		c0.3,0,0.5,0,0.8-0.1l6.5-2.8l2.4,4.9L37,95.8z M40.6,95.4l2.7-17.8h3.7l2.7,17.8H40.6z M48.8,66.4l7.7-3.9l0.9,7.7L48.8,66.4z"/>
	<rect x="49.9" y="27.9" class="st2" width="3.3" height="4.9"/>
	<rect x="37" y="27.9" class="st2" width="3.3" height="4.9"/>
	<path class="st2" d="M43.5,45.5h3.3c2.7,0,4.9-2.2,4.9-4.9H38.8C38.7,43.3,40.8,45.5,43.5,45.5z"/>
</g>
<g>
	<path class="st3" d="M10.6,24c0,0.9-0.7,1.7-1.7,1.7C8,25.7,7.2,25,7.2,24S8,22.3,9,22.3C9.9,22.3,10.6,23,10.6,24z"/>
	<path class="st0" d="M10.4,48.3c-0.4,0-0.8-0.1-1-0.4c-0.6-0.6-0.6-1.5,0-2.1l5.4-5.4c0.6-0.6,1.5-0.6,2.1,0c0.6,0.6,0.6,1.5,0,2.1
		l-5.5,5.3C11.1,48.1,10.7,48.3,10.4,48.3L10.4,48.3z"/>
	<path class="st0" d="M15.8,48.3c-0.4,0-0.8-0.1-1-0.4l-5.4-5.4c-0.6-0.6-0.6-1.5,0-2.1c0.6-0.6,1.5-0.6,2.1,0l5.4,5.4
		c0.6,0.6,0.6,1.5,0,2.1C16.5,48.1,16.2,48.3,15.8,48.3z"/>
</g>
</svg>
