<?xml version="1.0" encoding="utf-8"?>
<!-- Generator: Adobe Illustrator 24.1.0, SVG Export Plug-In . SVG Version: 6.00 Build 0)  -->
<svg version="1.1" id="Layer_1" xmlns="http://www.w3.org/2000/svg" xmlns:xlink="http://www.w3.org/1999/xlink" x="0px" y="0px"
	 viewBox="0 0 115.2 100.9" style="enable-background:new 0 0 115.2 100.9;" xml:space="preserve">
<style type="text/css">
	.st0{fill:#40906C;}
	.st1{fill:none;stroke:#40906C;stroke-width:2;stroke-miterlimit:10;}
	.st2{fill:#A2A2A2;}
	.st3{fill:#6149AF;}
</style>
<g>
	<path class="st0" d="M115.2,56.6c0,0.9-0.7,1.7-1.7,1.7c-0.9,0-1.7-0.7-1.7-1.7c0-0.9,0.7-1.7,1.7-1.7
		C114.5,54.9,115.2,55.7,115.2,56.6z"/>
	<path class="st0" d="M40.3,5.6c0,0.9-0.7,1.7-1.7,1.7c-0.9,0-1.7-0.7-1.7-1.7s0.7-1.7,1.7-1.7C39.5,3.9,40.3,4.6,40.3,5.6z"/>
	<path class="st1" d="M86.4,75.8c14.8-12.9,14.8-36.9,0.6-50.2C71.9,12.2,46.1,14,35.4,31.8"/>
	<path class="st0" d="M104.5,70.6c2.1,0.5,4.1-0.8,4.6-2.9c0.5-2.1-0.8-4.1-2.9-4.6c-2.1-0.5-4.1,0.8-4.6,2.9
		C101.1,68.1,102.4,70.1,104.5,70.6z"/>
	<g>
		<path class="st0" d="M15.4,13.5c-0.3,0-0.7-0.1-1-0.4c-0.5-0.5-0.5-1.4,0-1.9l5-5c0.5-0.5,1.4-0.5,1.9,0s0.5,1.4,0,1.9l-5,5
			C16.1,13.4,15.8,13.5,15.4,13.5L15.4,13.5z"/>
		<path class="st0" d="M20.4,13.5c-0.3,0-0.7-0.1-1-0.4l-5-5c-0.5-0.5-0.5-1.4,0-1.9s1.4-0.5,1.9,0l5,5c0.5,0.5,0.5,1.4,0,1.9
			C21.1,13.4,20.7,13.5,20.4,13.5z"/>
	</g>
	<g>
		<g>
			<path class="st2" d="M9,49.9h17.6c0.6,0,1.1-0.5,1.1-1.1c0-0.6-0.5-1.1-1.1-1.1H9c-0.6,0-1.1,0.5-1.1,1.1
				C7.9,49.4,8.4,49.9,9,49.9z"/>
			<path class="st2" d="M40,65.4h10c0.6,0,1.1-0.5,1.1-1.1c0-0.6-0.5-1.1-1.1-1.1H40c-0.6,0-1.1,0.5-1.1,1.1
				C38.9,64.9,39.4,65.4,40,65.4L40,65.4z"/>
			<path class="st2" d="M9,59.1h17.6c0.6,0,1.1-0.5,1.1-1.1c0-0.6-0.5-1.1-1.1-1.1H9c-0.6,0-1.1,0.5-1.1,1.1
				C7.9,58.6,8.4,59.1,9,59.1z"/>
			<path class="st2" d="M9,68.4h17.6c0.6,0,1.1-0.5,1.1-1.1c0-0.6-0.5-1.1-1.1-1.1H9c-0.6,0-1.1,0.5-1.1,1.1
				C7.9,67.9,8.4,68.4,9,68.4z"/>
			<path class="st2" d="M9,77.7h17.6c0.6,0,1.1-0.5,1.1-1.1s-0.5-1.1-1.1-1.1H9c-0.6,0-1.1,0.5-1.1,1.1S8.4,77.7,9,77.7z"/>
			<path class="st2" d="M9,86.9h17.6c0.6,0,1.1-0.5,1.1-1.1s-0.5-1.1-1.1-1.1H9c-0.6,0-1.1,0.5-1.1,1.1S8.4,86.9,9,86.9z"/>
			<path class="st2" d="M40,74.5h10c0.6,0,1.1-0.5,1.1-1.1s-0.5-1.1-1.1-1.1H40c-0.6,0-1.1,0.5-1.1,1.1S39.4,74.5,40,74.5L40,74.5z"
				/>
			<path class="st2" d="M40,56.3h10c0.6,0,1.1-0.5,1.1-1.1c0-0.6-0.5-1.1-1.1-1.1H40c-0.6,0-1.1,0.5-1.1,1.1
				C38.9,55.8,39.4,56.3,40,56.3L40,56.3z"/>
			<path class="st2" d="M40,47.3h10c0.6,0,1.1-0.5,1.1-1.1c0-0.6-0.5-1.1-1.1-1.1H40c-0.6,0-1.1,0.5-1.1,1.1
				C38.9,46.8,39.4,47.3,40,47.3L40,47.3z"/>
			<path class="st2" d="M9,40.6h17.6c0.6,0,1.1-0.5,1.1-1.1c0-0.6-0.5-1.1-1.1-1.1H9c-0.6,0-1.1,0.5-1.1,1.1
				C7.9,40.1,8.4,40.6,9,40.6z"/>
			<path class="st2" d="M58.1,57.1c-0.7,0-1.3-0.2-1.8-0.5v17.7l2.2,0.2V57.1C58.4,57.1,58.3,57.1,58.1,57.1z"/>
			<path class="st2" d="M35.6,93.7V38.1h16.3c-0.1-0.8,0-1.5,0.4-2.2H35.6v-6.8c0-0.6-0.5-1.1-1.1-1.1h-3.6v-8
				c0-0.6-0.5-1.1-1.1-1.1H19v-5.4c0-0.6-0.5-1.1-1.1-1.1c-0.6,0-1.1,0.5-1.1,1.1v5.4h-11c-0.6,0-1.1,0.5-1.1,1.1v8H1.1
				C0.5,28,0,28.5,0,29.1v65.7c0,0.6,0.5,1.1,1.1,1.1h39.4c-0.1-0.7-0.1-1.5-0.1-2.2L35.6,93.7z M6.9,21.1h21.7V28H6.9V21.1z
				 M33.3,93.7H2.2V30.2h31.1V93.7z"/>
		</g>
		<g>
			<path class="st2" d="M96.5,87.8c0.7,0,1.2-0.5,1.2-1.2v-4c0-2.4-1.5-4.5-3.8-5.3L78.6,72c-0.2-0.5-0.8-0.8-1.4-0.7l-1.8-6.3
				l3-2.6c0.9-0.8,1.5-1.9,1.5-3.2l0,0c0-0.6-0.5-1-1-1h-0.4c-0.6,0-1,0.5-1,1l0,0c0,0.5-0.2,1-0.6,1.4L70.5,66
				c-0.3,0.3-0.7,0.4-1.2,0.4h-2.6c-0.4,0-0.8-0.2-1.2-0.4l-6.4-5.5c-0.4-0.3-0.6-0.8-0.6-1.4V43.9h19v10.7c0,0.7,0.5,1.2,1.2,1.2
				H82c1.5,0,2.7-1.2,2.7-2.7V49c0-1.5-1.2-2.7-2.7-2.7h-2.1v-2.8c0.7-0.5,1.2-1.3,1.2-2.2v-2.1c0-3.9-3.2-7.1-7.1-7.1h-4.7v0
				c-1.8-1.6-4.1-2.4-6.5-2.4H52.6c-0.7,0-1.2,0.5-1.2,1.2v3c0,0.2,0,0.4,0,0.6l-1.2,0c-0.7,0-1.2,0.6-1.2,1.2c0,4.1,3,7.6,7.1,8.2
				v2.5h-2.1c-1.5,0-2.7,1.2-2.7,2.7v4.2c0,1.5,1.2,2.7,2.7,2.7h2.1v3.4c0,1.2,0.5,2.4,1.5,3.2l3,2.5l-1.8,6.3
				c-0.6-0.1-1.2,0.2-1.4,0.7l-9,3.3l1,2.1l7.6-2.7l-0.9,7.2c-0.1,0.7,0.4,1.2,1,1.3c0.2,0,0.4,0,0.6-0.1l4.8-2.1l1.8,3.6l-2.2,14.1
				h-12v-7.1c0-0.7-0.5-1.2-1.2-1.2h0c-0.7,0-1.2,0.5-1.2,1.2v7.1h-7.1V82.7c0-1.4,0.9-2.6,2.2-3.1l14.4-5.1l-8.9,0.7l-6.3,2.1
				c-2.3,0.8-3.8,2.9-3.8,5.3v17c0,0.7,0.5,1.2,1.2,1.2h57c0.7,0,1.2-0.5,1.2-1.2v-8.3c0-0.7-0.5-1.2-1.2-1.2l0,0
				c-0.7,0-1.2,0.5-1.2,1.2v7.1h-7.1v-7.1c0-0.7-0.5-1.2-1.2-1.2l0,0c-0.7,0-1.2,0.5-1.2,1.2v7.1h-12l-2.2-14.1l1.8-3.6l4.8,2.1
				c0.6,0.3,1.3,0,1.6-0.6c0.1-0.2,0.1-0.4,0.1-0.6L79,74.6l14.2,5c1.3,0.5,2.2,1.7,2.2,3.1v4C95.4,87.3,95.9,87.8,96.5,87.8
				L96.5,87.8z M82,48.7c0.2,0,0.3,0.1,0.3,0.3v4.2c0,0.2-0.1,0.3-0.3,0.3h-2.1v-4.7H82z M78.7,39.2v2.1c0,0.2-0.1,0.3-0.3,0.3h-5.6
				v-1.8c0-1.9-0.5-3.7-1.5-5.3H74C76.6,34.4,78.7,36.5,78.7,39.2z M53.8,33.8V32h8.9c4.3,0,7.7,3.5,7.7,7.7v1.8H68
				c-0.6-4.1-4.1-7.1-8.2-7.1h-5.9C53.8,34.2,53.8,34,53.8,33.8z M51.5,36.8h8.2c2.8,0,5.2,2,5.8,4.7h-8.2
				C54.5,41.5,52.1,39.6,51.5,36.8z M54.1,53.4c-0.2,0-0.3-0.1-0.3-0.3V49c0-0.2,0.1-0.3,0.3-0.3h2.1v4.7H54.1z M64.1,67.9
				c0.8,0.6,1.7,1,2.7,1h2.6c1,0,2-0.4,2.7-1l1.4-1.2l1.6,5.7l-7,3.5l-7-3.5l1.6-5.7L64.1,67.9z M59.5,74.2l5.7,2.9L58.8,80
				L59.5,74.2z M64.7,98.5l2-13.1h2.7l2,13.1H64.7z M69.7,83.1h-3.3l-1.6-3.2l3.2-1.4l3.2,1.4L69.7,83.1z M70.8,77.1l5.7-2.9
				l0.7,5.7L70.8,77.1z"/>
			<rect x="71.6" y="48.7" class="st2" width="2.4" height="3.6"/>
			<rect x="62.1" y="48.7" class="st2" width="2.4" height="3.6"/>
			<path class="st2" d="M66.9,61.7h2.4c2,0,3.6-1.6,3.6-3.6h-9.5C63.3,60.1,64.9,61.7,66.9,61.7z"/>
		</g>
	</g>
	<g>
		<path class="st3" d="M87.2,1.7c0,0.9-0.7,1.7-1.7,1.7c-0.9,0-1.7-0.7-1.7-1.7S84.6,0,85.6,0C86.5,0,87.2,0.7,87.2,1.7z"/>
		<path class="st0" d="M94,25.1c-0.4,0-0.8-0.1-1-0.4c-0.6-0.6-0.6-1.5,0-2.1l5.4-5.4c0.6-0.6,1.5-0.6,2.1,0s0.6,1.5,0,2.1L95,24.6
			C94.7,24.9,94.3,25.1,94,25.1L94,25.1z"/>
		<path class="st0" d="M99.4,25.1c-0.4,0-0.8-0.1-1-0.4l-5.4-5.4c-0.6-0.6-0.6-1.5,0-2.1c0.6-0.6,1.5-0.6,2.1,0l5.4,5.4
			c0.6,0.6,0.6,1.5,0,2.1C100.1,24.9,99.8,25.1,99.4,25.1z"/>
	</g>
	<polygon class="st2" points="59.5,74.2 65.3,77.1 58.8,80 	"/>
	<polygon class="st2" points="70.8,77.1 76.6,74.2 77.3,80 	"/>
</g>
</svg>
