<?xml version="1.0" encoding="utf-8"?>
<!-- Generator: Adobe Illustrator 24.1.0, SVG Export Plug-In . SVG Version: 6.00 Build 0)  -->
<svg version="1.1" id="Layer_1" xmlns="http://www.w3.org/2000/svg" xmlns:xlink="http://www.w3.org/1999/xlink" x="0px" y="0px"
	 viewBox="0 0 100 100" style="enable-background:new 0 0 100 100;" xml:space="preserve">
<style type="text/css">
	.st0{fill:none;stroke:#40906C;stroke-width:2;stroke-miterlimit:10;}
	.st1{fill:#40906C;}
	.st2{fill:#6149AF;}
	.st3{fill:#A2A2A2;}
</style>
<path class="st0" d="M80.2,24.6C74,14.5,62.8,7.8,50,7.8c-15.2,0-28.2,9.6-33.3,23"/>
<path class="st1" d="M19.8,82.5c0,1.1-0.9,1.9-1.9,1.9c-1.1,0-1.9-0.9-1.9-1.9c0-1.1,0.9-1.9,1.9-1.9C18.9,80.5,19.8,81.4,19.8,82.5
	z"/>
<path class="st1" d="M82.7,80.6c0,1.1-0.9,1.9-1.9,1.9c-1.1,0-1.9-0.9-1.9-1.9c0-1.1,0.9-1.9,1.9-1.9C81.8,78.6,82.7,79.5,82.7,80.6
	z"/>
<path class="st2" d="M73.2,3.6c0.2-1,1.3-1.7,2.3-1.5s1.7,1.3,1.5,2.3s-1.3,1.7-2.3,1.5C73.6,5.7,73,4.7,73.2,3.6z"/>
<path class="st2" d="M118.3-10.3c0.2-1,1.3-1.7,2.3-1.5c1,0.2,1.7,1.3,1.5,2.3s-1.3,1.7-2.3,1.5C118.7-8.2,118.1-9.2,118.3-10.3z"/>
<g>
	<path class="st3" d="M69.4,60.1c0.8,0.9,1.9,1.4,3,1.4l0,0c1.2,0,2.2-0.5,3-1.4c0.5-0.5,0.5-1.5,0-2.1c-0.5-0.5-1.4-0.5-1.9,0
		c-0.3,0.3-0.6,0.5-1.1,0.5l0,0c-0.4,0-0.8-0.2-1.1-0.5c-0.5-0.5-1.4-0.5-1.9,0S68.9,59.5,69.4,60.1z"/>
	<path class="st3" d="M67.5,52c0.3,0.3,0.6,0.5,0.9,0.5c0.4,0,0.7-0.2,1-0.5c0.5-0.5,0.5-1.5,0-2.1c-1.2-1.3-3.2-1.3-4.4,0
		c-0.5,0.5-0.5,1.5,0,2.1c0.5,0.5,1.4,0.6,1.9,0C67.1,51.9,67.4,51.9,67.5,52L67.5,52z"/>
	<path class="st3" d="M77.4,52c0.2-0.2,0.4-0.2,0.5,0c0.3,0.3,0.6,0.5,0.9,0.5c0.4,0,0.7-0.2,1-0.5c0.5-0.5,0.5-1.5,0-2.1
		c-1.2-1.3-3.2-1.3-4.4,0c-0.5,0.5-0.5,1.5,0,2.1C75.9,52.6,76.8,52.6,77.4,52z"/>
	<path class="st3" d="M96.7,95.5L95,81.5c-0.2-1.5-0.5-2.8-0.9-4c-0.3-0.7-1.1-1.1-1.7-0.8c-0.7,0.3-1.1,1.1-0.8,1.9
		c0.4,1,0.6,2.1,0.7,3.4l1.6,13.9H87v-6.6c0-0.8-0.6-1.5-1.4-1.5s-1.4,0.6-1.4,1.5v6.6H56c0-0.1,0-0.1,0-0.2L54.3,81
		c-0.3-2.5-1-4.5-1.8-6.2c0.3-0.1,1.2-0.3,1.2-0.3c1.2-0.3,2.4-0.5,2.9-1.8c0.2-0.5,0.2-1,0.1-1.5H63l6.7,4.8
		c0.9,0.7,1.8,1.1,2.6,1.1s1.7-0.4,2.6-1.1l6.5-4.7c2.5,0.7,5,1.5,6.9,2.9c0.3,0.2,0.5,0.3,0.8,0.3c0.5,0,0.8-0.2,1.1-0.6
		c0.5-0.6,0.3-1.5-0.4-2c-2.4-1.7-5.3-2.5-8-3.4l-0.3-0.1h-0.1c-0.8-0.3-1.3-1.4-1.6-2.2c5.2-3.5,9-9.8,9-15.3v-4.4
		c4.6-4.9,5.1-13.1,4.5-19.2c0-0.5-0.1-0.8-0.1-1.2c-0.1-1.8-0.2-2.7-1-3.3c-0.8-0.5-1.6-0.2-2.4,0.3c-0.4,0.2-0.9,0.5-1.5,0.6
		c-3.3,1.3-7.2,1.1-10.5,0.8c-0.5,0-1.1-0.1-1.5-0.2c-1.6-0.2-3.1-0.3-4.6-0.4c-3.4-0.1-7.4,0.4-9.6,4.2c-0.5,1-1,2.1-1.3,3.4
		c-0.8,0.5-1.5,1-2.2,1.5c-3.1,2.9-3.1,6.6-3.1,11.4c0,0.4,0,0.7,0,1.1v0.1v4.8c0,5.4,3.9,11.8,9.1,15.3c-0.3,0.8-0.7,1.8-1.5,2.2
		h-7.9c-2.8-4.7-4-11.8-4-24.2v-0.1c-0.1-1.6-0.3-3.8-0.7-6c-0.7-3.4-2.2-6.3-4.3-8.8c-0.5-0.6-1.4-0.6-1.9-0.1s-0.6,1.5-0.1,2.1
		c1.7,2.1,3,4.6,3.6,7.5c0.5,1.9,0.5,3.9,0.6,5.4c0,13.5,1.3,20.9,4.6,26.1c0.4,0.6,0.5,1,0.6,1.2c-0.3,0.1-1,0.3-1,0.3
		c-0.8,0.2-1.5,0.4-2.3,0.6c-2.6-2.8-6.3-3.8-9.8-4.8l-0.5-0.1c-0.9-0.3-1.5-1.5-1.7-2.4c4-3.2,6.9-8.3,6.9-12.7v-4.4
		c0-0.7-0.5-1.4-1.3-1.5c-2.3-0.2-3.1-1.1-4-2.1c-1-1.1-2.2-2.4-4.8-1.7c-0.7,0.2-1.3,0.4-1.8,0.5c-1.5,0.5-2.3,0.6-2.8,0.6
		c-0.6,0-1.4-0.2-2.9-0.6c-0.5-0.2-1.1-0.4-1.8-0.5c-2.6-0.7-3.8,0.6-4.8,1.7c-0.9,1-1.7,1.9-4,2.1c-0.7,0.1-1.3,0.7-1.3,1.5v4.4
		c0,4.4,2.9,9.5,6.9,12.7c-0.4,1-0.8,2.2-1.7,2.4l-0.4,0.1c-1.3,0.4-2.5,0.7-3.7,1.2c-0.2-0.2-0.4-0.3-0.5-0.5l-3.4-1.8
		c-0.8-0.5-1.7-0.6-2.6-0.6c1.7-4.9,2.4-11.6,2.4-21.7c0-7.2,2.9-11.9,5.7-12.4h0.1c0.4-0.1,1.3-0.2,1.8-1.2c1-2.1,3.1-3.7,5.8-4.6
		c4.3-1.4,9.5-0.7,13.6,1.7c0.6,0.4,1.5,0.2,1.8-0.5c0.4-0.7,0.1-1.6-0.5-2c-4.7-2.8-10.8-3.5-15.8-2c-3.3,1.1-5.9,3.1-7.3,5.7h-0.1
		c-2.3,0.4-4.4,2.2-5.8,5.1c-1.5,2.8-2.2,6.3-2.2,10.2c0,11.2-1,18.1-3.2,22.8c-0.9,0.6-1.5,1.5-2.1,2.4l-1,2.2
		c-0.7,1.5-0.8,3.3-0.3,4.9s1.6,3,3,3.7l0.6,0.4c0,0.2,0,0.3-0.1,0.5L5.6,95.5c-0.1,0.6-0.1,1.5,0.5,2.3c0.6,0.7,1.5,0.8,2.1,0.8
		h45.2h40.7c0.6,0,1.5-0.1,2.1-0.8C96.8,97.1,96.7,96.2,96.7,95.5L96.7,95.5z M73.4,73.6C73.4,73.6,73.3,73.7,73.4,73.6
		c-1,0.8-1.2,0.8-2.1,0c0,0,0,0-0.1,0l-5.4-3.9c0.5-0.7,1-1.5,1.3-2.2c0.3,0.2,0.6,0.3,0.9,0.4c1.5,0.6,2.9,0.9,4.4,0.9
		c1.4,0,2.8-0.3,4.4-0.9c0.4-0.1,0.6-0.3,0.9-0.5c0.3,0.7,0.6,1.5,1.3,2.3L73.4,73.6z M60.4,35.5c0.5-0.5,1.1-0.9,1.8-1.3l0,0
		c0.5-0.4,1-0.6,1.2-1.5c0-0.1,0-0.1,0-0.2c0.2-1,0.5-1.9,0.9-2.5c1.2-2.1,3.4-2.8,7.3-2.7c1.4,0,2.9,0.2,4.4,0.3
		c0.5,0.1,1.1,0.1,1.6,0.2c3.6,0.3,7.8,0.5,11.6-0.9c0.5-0.2,1-0.4,1.4-0.5c0,0.1,0,0.1,0,0.2c0,0.4,0.1,0.7,0.1,1.2
		c0.4,4.4,0.4,12.4-3.6,16.8c-0.5-0.1-1-0.2-1.5-0.3c-6.6-1.2-8.6-1.5-17-5.5c-0.6-0.3-1.3-0.5-1.8-0.5c-1.5,0-2.6,1.1-3.2,1.6
		c-0.2,0.2-0.5,0.5-0.6,0.7c-1.1,1.2-2.8,3-4.8,3.7C58.2,40.1,58.4,37.5,60.4,35.5L60.4,35.5z M58.3,50.7V47
		c3.1-0.7,5.4-3.3,6.7-4.7c0.3-0.3,0.5-0.5,0.5-0.6c0.8-0.8,1.2-1,1.9-0.6c8.7,4.2,11,4.6,17.7,5.8c0.3,0.1,0.6,0.1,1,0.2v3.7
		c0,5.4-5,12.1-10.6,14.4c-2.4,1-4.3,1-6.7,0c-0.6-0.3-1.3-0.5-1.8-0.9c-0.1,0-0.1-0.1-0.2-0.1c0,0,0,0-0.1,0
		C62.1,61.3,58.3,55.6,58.3,50.7L58.3,50.7z M18.7,52.1V49c2.4-0.5,3.5-1.8,4.4-2.7c0.8-0.9,1.1-1.2,2.2-0.9
		c0.7,0.2,1.3,0.4,1.8,0.5c1.6,0.5,2.5,0.7,3.5,0.7c1,0,1.9-0.3,3.5-0.7c0.5-0.2,1.1-0.3,1.8-0.5c1.1-0.3,1.4,0,2.2,0.9
		c0.9,1,2.1,2.3,4.4,2.7v3.1c0,4.6-4.3,10.4-9.2,12.3c-1.1,0.5-2,0.6-2.9,0.6c-0.9,0-1.8-0.2-2.9-0.6C23,62.6,18.7,56.8,18.7,52.1
		L18.7,52.1z M37.6,68.7l-5.6,4.1c0,0,0,0-0.1,0c-1,0.8-1.2,0.8-2.2,0c0,0,0,0-0.1,0L24,68.7c0.6-0.7,1-1.5,1.3-2.3
		c0.5,0.3,1.1,0.5,1.7,0.8c1.4,0.5,2.6,0.8,3.8,0.8c1.2,0,2.4-0.3,3.8-0.8c0.5-0.2,1.2-0.5,1.7-0.8C36.6,67.2,36.9,68,37.6,68.7z
		 M7.9,77.5c-0.8-0.5-1.4-1.2-1.6-2c-0.3-0.9-0.2-1.8,0.2-2.7l0,0l1-2.2c0.5-0.8,1.1-1.5,1.9-1.8c0.4-0.1,0.7-0.2,1.1-0.2
		c0.5,0,1,0.1,1.5,0.4l3,1.5l-4,8.5L7.9,77.5z M46,95.7v-6.9c0-0.8-0.6-1.5-1.4-1.5s-1.4,0.6-1.4,1.5v6.9h-25v-6.9
		c0-0.8-0.6-1.5-1.4-1.5s-1.4,0.6-1.4,1.5v6.9H8.3l1.6-13.9l0.2,0.1c0.4,0.2,0.6,0.3,1,0.3c0.8,0,1.6-0.5,2.1-1.4l4.4-9.3
		c1.2-0.5,2.4-0.8,3.8-1.2l6.8,4.9c1,0.8,1.8,1.2,2.7,1.2c0.9,0,1.7-0.4,2.7-1.2l6.8-4.9c5.4,1.5,10.2,3.1,11.2,11l1.7,14.4H46
		L46,95.7z"/>
	<path class="st3" d="M30.9,62.1c1.2,0,2.2-0.5,3-1.4c0.5-0.5,0.5-1.5,0-2.1c-0.5-0.5-1.4-0.5-1.9,0c-0.3,0.3-0.6,0.5-1.1,0.5l0,0
		c-0.4,0-0.8-0.2-1.1-0.5c-0.5-0.5-1.4-0.5-1.9,0s-0.5,1.5,0,2.1C28.7,61.6,29.7,62.1,30.9,62.1L30.9,62.1L30.9,62.1z"/>
	<path class="st3" d="M27.9,50.7c-1.2-1.3-3.2-1.3-4.4,0c-0.5,0.5-0.5,1.5,0,2.1c0.3,0.3,0.6,0.5,1,0.5c0.4,0,0.7-0.2,0.9-0.5
		c0.2-0.2,0.4-0.2,0.5,0c0.5,0.5,1.4,0.5,1.9,0C28.4,52.1,28.4,51.2,27.9,50.7L27.9,50.7z"/>
	<path class="st3" d="M34.8,53.1c0.4,0,0.7-0.2,0.9-0.5c0.2-0.2,0.4-0.2,0.5,0c0.5,0.5,1.5,0.5,1.9,0c0.5-0.5,0.5-1.5,0-2.1
		c-1.2-1.3-3.2-1.3-4.4,0c-0.5,0.5-0.5,1.5,0,2.1C34.1,53,34.5,53.1,34.8,53.1L34.8,53.1z"/>
</g>
<path class="st1" d="M52.8,81.9l0.4,0.2l0.4-0.2c0.4-0.1,10.3-3.1,10.3-10.9c0-3.4-2.9-6.3-6.4-6.3c-1.6,0-4.2,2.4-4.3,3.5
	c0-1.1-2.7-3.5-4.3-3.5c-3.6,0-6.4,2.8-6.4,6.3C42.6,78.7,52.4,81.7,52.8,81.9z"/>
<path class="st1" d="M82.9,19.4l0.1,0l0.1,0c0.1,0,3-0.9,3-3.2c0-1-0.8-1.8-1.9-1.8c-0.4,0-0.9,0.2-1.2,0.4
	c-0.4-0.3-0.8-0.4-1.2-0.4c-1,0-1.9,0.8-1.9,1.8C80,18.5,82.8,19.3,82.9,19.4z"/>
<path class="st1" d="M53.1,24.8l0.1,0l0.1,0c0.1,0,3-0.9,3-3.2c0-1-0.8-1.8-1.9-1.8c-0.4,0-0.9,0.2-1.2,0.4
	c-0.4-0.3-0.8-0.4-1.2-0.4c-1,0-1.9,0.8-1.9,1.8C50.2,23.9,53,24.7,53.1,24.8z"/>
<path class="st1" d="M10.4,14.9h0.2h0.2c0.2-0.1,5.3-1.6,5.3-5.7c0-1.8-1.5-3.3-3.4-3.3c-0.8,0-1.6,0.3-2.2,0.8
	C10,6.2,9.2,5.9,8.4,5.9C6.5,5.9,5,7.4,5,9.2C5,13.2,10.1,14.8,10.4,14.9z"/>
<path class="st0" d="M77.6-12.7C66.6-28,43.5-31.8,28.5-20C24.4-16.8,21-12.6,18.7-8"/>
</svg>
