<?xml version="1.0" encoding="utf-8"?>
<!-- Generator: Adobe Illustrator 24.1.0, SVG Export Plug-In . SVG Version: 6.00 Build 0)  -->
<svg version="1.1" id="Layer_1" xmlns="http://www.w3.org/2000/svg" xmlns:xlink="http://www.w3.org/1999/xlink" x="0px" y="0px"
	 viewBox="0 0 120.5 97.8" style="enable-background:new 0 0 120.5 97.8;" xml:space="preserve">
<style type="text/css">
	.st0{fill:none;stroke:#40906C;stroke-width:2;stroke-miterlimit:10;}
	.st1{fill:#40906C;}
	.st2{fill:#6149AF;}
	.st3{fill:#A2A2A2;}
	.st4{fill:#40906C;stroke:#EBEBEB;stroke-width:3;stroke-miterlimit:10;}
</style>
<g>
	<path class="st0" d="M85.2,17.3C76.4,4.6,59.1-1.3,44.5,4.2c-4.9,1.9-9.3,5-12.8,8.9"/>
	<path class="st1" d="M30,81.4c0,1.1-0.9,1.9-1.9,1.9c-1.1,0-1.9-0.9-1.9-1.9c0-1.1,0.9-1.9,1.9-1.9C29.1,79.4,30,80.3,30,81.4z"/>
	<path class="st2" d="M87.2,4.4c0.2-1,1.3-1.7,2.3-1.5c1,0.2,1.7,1.3,1.5,2.3c-0.2,1-1.3,1.7-2.3,1.5C87.6,6.5,87,5.5,87.2,4.4z"/>
	<g>
		<path class="st3" d="M72.8,55.3c0.9,1,2.1,1.5,3.3,1.5h0c1.3,0,2.4-0.5,3.3-1.5c0.6-0.6,0.6-1.6,0-2.3c-0.6-0.6-1.5-0.6-2.1,0
			c-0.3,0.3-0.7,0.5-1.2,0.5c0,0,0,0,0,0c-0.4,0-0.9-0.2-1.2-0.5c-0.6-0.6-1.5-0.6-2.1,0S72.3,54.7,72.8,55.3z"/>
		<path class="st3" d="M70.7,46.4c0.3,0.3,0.7,0.5,1,0.5c0.4,0,0.8-0.2,1.1-0.5c0.6-0.6,0.6-1.7,0-2.3c-1.3-1.4-3.5-1.4-4.8,0
			c-0.6,0.6-0.6,1.6,0,2.3c0.6,0.6,1.5,0.7,2.1,0C70.3,46.3,70.6,46.3,70.7,46.4L70.7,46.4z"/>
		<path class="st3" d="M81.6,46.4c0.2-0.2,0.4-0.2,0.6,0c0.3,0.3,0.7,0.5,1,0.5c0.4,0,0.8-0.2,1.1-0.5c0.6-0.6,0.6-1.7,0-2.3
			c-1.3-1.4-3.5-1.4-4.8,0c-0.6,0.6-0.6,1.6,0,2.3C80,47,81,47,81.6,46.4z"/>
		<path class="st3" d="M102.9,94.4L101,78.9c-0.2-1.6-0.5-3.1-1-4.4c-0.3-0.8-1.2-1.2-1.9-0.9c-0.8,0.3-1.2,1.2-0.9,2.1
			c0.4,1.1,0.7,2.3,0.8,3.7l1.8,15.3h-7.6v-7.3c0-0.9-0.7-1.6-1.5-1.6c-0.8,0-1.5,0.7-1.5,1.6v7.3H58c0-0.1,0-0.1,0-0.2l-1.9-16.1
			c-0.3-2.8-1.1-5-2-6.8c0.3-0.1,1.3-0.3,1.3-0.3c1.3-0.3,2.7-0.6,3.2-2c0.2-0.5,0.2-1.1,0.1-1.6l7,0l7.4,5.3c1,0.8,2,1.2,2.9,1.2
			c0.9,0,1.9-0.4,2.9-1.2l7.2-5.2c2.8,0.8,5.5,1.6,7.6,3.2c0.3,0.2,0.6,0.3,0.9,0.3c0.5,0,0.9-0.2,1.2-0.7c0.5-0.7,0.3-1.7-0.4-2.2
			c-2.6-1.9-5.8-2.8-8.8-3.7l-0.3-0.1c0,0-0.1,0-0.1,0c-0.9-0.3-1.4-1.5-1.8-2.4c5.7-3.9,9.9-10.8,9.9-16.9v-4.8
			c5.1-5.4,5.6-14.4,5-21.2c0-0.5-0.1-0.9-0.1-1.3C99.1,16,99,15,98.1,14.4c-0.9-0.6-1.8-0.2-2.7,0.3c-0.4,0.2-1,0.5-1.7,0.7
			c-3.6,1.4-7.9,1.2-11.6,0.9c-0.6,0-1.2-0.1-1.7-0.2c-1.8-0.2-3.4-0.3-5.1-0.4c-3.7-0.1-8.2,0.4-10.6,4.6c-0.6,1.1-1.1,2.3-1.4,3.8
			c-0.9,0.5-1.7,1.1-2.4,1.7c-3.4,3.2-3.4,7.3-3.4,12.6c0,0.4,0,0.8,0,1.2c0,0,0,0.1,0,0.1V45c0,6,4.3,13,10,16.9
			c-0.3,0.9-0.8,2-1.6,2.4l-8.7,0c-3.1-5.2-4.4-13-4.4-26.7c0,0,0-0.1,0-0.1c-0.1-1.8-0.3-4.2-0.8-6.6c-0.8-3.7-2.4-7-4.7-9.7
			c-0.6-0.7-1.5-0.7-2.1-0.1c-0.6,0.6-0.7,1.6-0.1,2.3c1.9,2.3,3.3,5.1,4,8.3c0.5,2.1,0.6,4.3,0.7,6c0,14.9,1.4,23,5.1,28.8
			c0.4,0.7,0.6,1.1,0.7,1.3c-0.3,0.1-1.1,0.3-1.1,0.3c-0.9,0.2-1.7,0.4-2.5,0.7c-2.9-3.1-7-4.2-10.8-5.3l-0.5-0.1
			c-1-0.3-1.6-1.6-1.9-2.7c4.4-3.5,7.6-9.1,7.6-14v-4.8c0-0.8-0.6-1.5-1.4-1.6c-2.5-0.2-3.4-1.2-4.4-2.3c-1.1-1.2-2.4-2.7-5.3-1.9
			c-0.8,0.2-1.4,0.4-2,0.6c-1.6,0.5-2.5,0.7-3.1,0.7c-0.7,0-1.5-0.2-3.2-0.7c-0.6-0.2-1.2-0.4-2-0.6c-2.9-0.8-4.2,0.7-5.3,1.9
			c-1,1.1-1.9,2.1-4.4,2.3c-0.8,0.1-1.4,0.8-1.4,1.6v4.8c0,4.9,3.2,10.5,7.6,14c-0.4,1.1-0.9,2.4-1.9,2.7l-0.4,0.1
			c-1.4,0.4-2.8,0.8-4.1,1.3c-0.2-0.2-0.4-0.3-0.6-0.5l-3.7-2c-0.9-0.5-1.9-0.7-2.9-0.7c1.9-5.4,2.7-12.8,2.7-23.9
			c0-7.9,3.2-13.1,6.3-13.7c0,0,0.1,0,0.1,0c0.4-0.1,1.4-0.2,2-1.3c1.1-2.3,3.4-4.1,6.4-5.1c4.7-1.5,10.5-0.8,15,1.9
			c0.7,0.4,1.6,0.2,2-0.6c0.4-0.8,0.1-1.8-0.6-2.2c-5.2-3.1-11.9-3.9-17.4-2.2c-3.6,1.2-6.5,3.4-8,6.3c0,0-0.1,0-0.1,0
			c-2.5,0.4-4.8,2.4-6.4,5.6c-1.6,3.1-2.4,7-2.4,11.2c0,12.4-1.1,20-3.5,25.1c-1,0.7-1.7,1.6-2.3,2.7l-1.1,2.4
			c-0.8,1.7-0.9,3.6-0.3,5.4c0.6,1.8,1.8,3.3,3.3,4.1l0.7,0.4c0,0.2,0,0.3-0.1,0.5L2.4,94.4c-0.1,0.7-0.1,1.7,0.5,2.5
			c0.7,0.8,1.6,0.9,2.3,0.9h49.9h44.9c0.7,0,1.6-0.1,2.3-0.9C103,96.1,102.9,95.1,102.9,94.4L102.9,94.4z M77.2,70.2
			C77.2,70.2,77.1,70.3,77.2,70.2c-1.1,0.9-1.3,0.9-2.3,0c0,0,0,0-0.1,0l-6-4.3c0.6-0.8,1.1-1.7,1.4-2.4c0.3,0.2,0.7,0.3,1,0.4
			c1.7,0.7,3.2,1,4.8,1c1.5,0,3.1-0.3,4.8-1c0.4-0.1,0.7-0.3,1-0.5c0.3,0.8,0.7,1.7,1.4,2.5L77.2,70.2z M62.9,28.2
			c0.5-0.5,1.2-1,2-1.4l0,0c0.6-0.4,1.1-0.7,1.3-1.7c0-0.1,0-0.1,0-0.2c0.2-1.1,0.6-2.1,1-2.8c1.3-2.3,3.7-3.1,8-3
			c1.5,0,3.2,0.2,4.9,0.3c0.6,0.1,1.2,0.1,1.8,0.2c4,0.3,8.6,0.6,12.8-1c0.6-0.2,1.1-0.4,1.5-0.6c0,0.1,0,0.1,0,0.2
			c0,0.4,0.1,0.8,0.1,1.3c0.4,4.9,0.4,13.7-4,18.5c-0.6-0.1-1.1-0.2-1.6-0.3c-7.3-1.3-9.5-1.7-18.8-6.1c-0.7-0.3-1.4-0.5-2-0.5
			c-1.7,0-2.9,1.2-3.5,1.8c-0.2,0.2-0.5,0.5-0.7,0.8c-1.2,1.3-3.1,3.3-5.3,4.1C60.5,33.3,60.7,30.4,62.9,28.2L62.9,28.2z M60.6,45
			v-4.1c3.4-0.8,6-3.6,7.4-5.2c0.3-0.3,0.5-0.5,0.6-0.7c0.9-0.9,1.3-1.1,2.1-0.7c9.6,4.6,12.1,5.1,19.5,6.4c0.3,0.1,0.7,0.1,1.1,0.2
			V45c0,6-5.5,13.4-11.7,15.9c-2.7,1.1-4.7,1.1-7.4,0c-0.7-0.3-1.4-0.6-2-1c-0.1,0-0.1-0.1-0.2-0.1c0,0,0,0-0.1,0
			C64.8,56.6,60.6,50.3,60.6,45L60.6,45z M16.9,46.5v-3.4c2.6-0.5,3.9-2,4.9-3c0.9-1,1.2-1.3,2.4-1c0.8,0.2,1.4,0.4,2,0.6
			c1.8,0.5,2.8,0.8,3.9,0.8c1.1,0,2.1-0.3,3.9-0.8c0.6-0.2,1.2-0.3,2-0.6c1.2-0.3,1.5,0,2.4,1c1,1.1,2.3,2.5,4.9,3v3.4
			c0,5.1-4.7,11.5-10.1,13.6c-1.2,0.5-2.2,0.7-3.2,0.7c-1,0-2-0.2-3.2-0.7C21.6,58.1,16.9,51.7,16.9,46.5L16.9,46.5z M37.7,64.8
			l-6.2,4.5c0,0,0,0-0.1,0c-1.1,0.9-1.3,0.9-2.4,0c0,0,0,0-0.1,0l-6.2-4.5c0.7-0.8,1.1-1.7,1.4-2.5c0.6,0.3,1.2,0.6,1.9,0.9
			c1.5,0.6,2.9,0.9,4.2,0.9s2.7-0.3,4.2-0.9c0.6-0.2,1.3-0.5,1.9-0.9C36.6,63.1,37,64,37.7,64.8z M5,74.5c-0.9-0.5-1.5-1.3-1.8-2.2
			c-0.3-1-0.2-2,0.2-3c0,0,0,0,0,0l1.1-2.4C5,66,5.7,65.3,6.6,64.9c0.4-0.1,0.8-0.2,1.2-0.2c0.6,0,1.1,0.1,1.6,0.4l3.3,1.7l-4.4,9.4
			L5,74.5z M47,94.6V87c0-0.9-0.7-1.6-1.5-1.6S44,86.1,44,87v7.6H16.4V87c0-0.9-0.7-1.6-1.5-1.6s-1.5,0.7-1.5,1.6v7.6h-8l1.8-15.3
			l0.2,0.1c0.4,0.2,0.7,0.3,1.1,0.3c0.9,0,1.8-0.6,2.3-1.5l4.8-10.3c1.3-0.5,2.7-0.9,4.2-1.3l7.5,5.4c1.1,0.9,2,1.3,3,1.3
			c1,0,1.9-0.4,3-1.3l7.5-5.4C46.8,68.3,52,70,53.1,78.7L55,94.6L47,94.6L47,94.6z"/>
		<path class="st3" d="M30.3,57.5c1.3,0,2.4-0.5,3.3-1.5c0.6-0.6,0.6-1.6,0-2.3c-0.6-0.6-1.5-0.6-2.1,0c-0.3,0.3-0.7,0.5-1.2,0.5
			c0,0,0,0,0,0c-0.4,0-0.9-0.2-1.2-0.5c-0.6-0.6-1.5-0.6-2.1,0c-0.6,0.6-0.6,1.6,0,2.3C27.9,57,29,57.5,30.3,57.5
			C30.3,57.5,30.3,57.5,30.3,57.5L30.3,57.5z"/>
		<path class="st3" d="M27,44.9c-1.3-1.4-3.5-1.4-4.8,0c-0.6,0.6-0.6,1.6,0,2.3c0.3,0.3,0.7,0.5,1.1,0.5c0.4,0,0.8-0.2,1-0.5
			c0.2-0.2,0.4-0.2,0.6,0c0.6,0.6,1.5,0.6,2.1,0C27.6,46.5,27.6,45.5,27,44.9L27,44.9z"/>
		<path class="st3" d="M34.6,47.6c0.4,0,0.8-0.2,1-0.5c0.2-0.2,0.4-0.2,0.6,0c0.6,0.6,1.6,0.6,2.1,0c0.6-0.6,0.6-1.7,0-2.3
			c-1.3-1.4-3.5-1.4-4.8,0c-0.6,0.6-0.6,1.6,0,2.3C33.9,47.5,34.3,47.6,34.6,47.6L34.6,47.6z"/>
	</g>
	<path class="st4" d="M52.2,79.7l0.5,0.2l0.5-0.2c0.5-0.1,12.3-3.7,12.3-13.1c0-4.1-3.5-7.5-7.7-7.5c-1.9,0-5,2.9-5.1,4.2
		c0-1.3-3.2-4.2-5.1-4.2c-4.3,0-7.7,3.4-7.7,7.5C39.9,75.9,51.7,79.5,52.2,79.7z"/>
	<path class="st1" d="M112.4,63.5l0.3,0.1l0.3-0.1c0.3-0.1,7.5-2.3,7.5-8c0-2.5-2.1-4.6-4.7-4.6c-1.1,0-2.2,0.4-3.1,1.1
		c-0.9-0.7-2-1.1-3.1-1.1c-2.6,0-4.7,2-4.7,4.6C105,61.2,112.1,63.4,112.4,63.5z"/>
	<path class="st1" d="M14.9,9L15.1,9L15.3,9c0.2-0.1,5.3-1.6,5.3-5.7c0-1.8-1.5-3.3-3.4-3.3c-0.8,0-1.6,0.3-2.2,0.8
		C14.5,0.3,13.7,0,12.9,0C11,0,9.5,1.5,9.5,3.3C9.5,7.3,14.6,8.9,14.9,9z"/>
</g>
</svg>
