<?xml version="1.0" encoding="utf-8"?>
<!-- Generator: Adobe Illustrator 24.1.0, SVG Export Plug-In . SVG Version: 6.00 Build 0)  -->
<svg version="1.1" id="Layer_1" xmlns="http://www.w3.org/2000/svg" xmlns:xlink="http://www.w3.org/1999/xlink" x="0px" y="0px"
	 viewBox="0 0 100 100" style="enable-background:new 0 0 100 100;" xml:space="preserve">
<style type="text/css">
	.st0{fill:#40906C;}
	.st1{fill:none;stroke:#40906C;stroke-width:2;stroke-miterlimit:10;}
	.st2{fill:#6149AF;}
	.st3{fill:#A2A2A2;}
</style>
<g>
	<path class="st0" d="M-107.4,58.7c-2-4.2-3.1-8.8-3.1-13.8c0-3.3,0.5-6.4,1.4-9.4c-0.7-0.6-1.1-1.4-1.3-2.3
		c-1.3,3.6-2.1,7.6-2.1,11.7c0,5.5,1.3,10.7,3.6,15.3C-108.4,59.6-107.9,59-107.4,58.7z"/>
	<path class="st0" d="M-46,44.9c0,7.9-2.9,15.2-7.6,20.8c0.6,0.4,1,0.9,1.4,1.4c5.1-6,8.2-13.8,8.2-22.2c0-13.1-7.4-24.5-18.3-30.3
		c0.1,0.7,0.1,1.5-0.1,2.2C-52.6,22.4-46,32.9-46,44.9z"/>
</g>
<path class="st1" d="M85.5,80c13.8-12.9,14.5-36.4,1-49.6c-3.8-3.7-8.3-6.5-13.2-8.2"/>
<path class="st0" d="M87.7,18.8c0,0.9-0.7,1.7-1.7,1.7c-0.9,0-1.7-0.7-1.7-1.7s0.7-1.7,1.7-1.7C86.9,17.1,87.7,17.9,87.7,18.8z"/>
<path class="st2" d="M11.2,57.3c0.3,0.6,0,1.4-0.7,1.7c-0.7,0.3-1.3-0.1-1.6-0.7c-0.3-0.6,0-1.4,0.7-1.7
	C10.2,56.3,10.9,56.6,11.2,57.3z"/>
<path class="st0" d="M14.7,50c0.3,0.6,0,1.4-0.7,1.7c-0.7,0.3-1.4,0-1.7-0.7c-0.3-0.7,0.1-1.4,0.8-1.7C13.8,49,14.5,49.3,14.7,50z"
	/>
<path class="st0" d="M17.2,57.7c1.6-0.3,3,0.8,3.4,2.3s-0.8,3-2.3,3.4c-1.6,0.3-3-0.8-3.4-2.3C14.6,59.5,15.6,58,17.2,57.7z"/>
<g>
	<path class="st0" d="M3.9,13.3c-0.5,0-1-0.2-1.3-0.6c-0.7-0.7-0.7-1.9,0-2.7l7-7c0.7-0.7,1.9-0.7,2.7,0c0.7,0.7,0.7,1.9,0,2.7l-7,7
		C4.8,13.1,4.3,13.3,3.9,13.3L3.9,13.3z"/>
	<path class="st0" d="M10.8,13.3c-0.5,0-1-0.2-1.3-0.6l-7-7C1.8,5,1.8,3.8,2.5,3c0.7-0.7,1.9-0.7,2.7,0l7,7c0.7,0.7,0.7,1.9,0,2.7
		C11.8,13.1,11.3,13.3,10.8,13.3z"/>
</g>
<g>
	<path class="st3" d="M43.6,35.7c0-1.6-1-2.9-2.4-2.9c-1.3,0-2.4,1.3-2.4,2.9s1,2.9,2.4,2.9C42.6,38.7,43.6,37.3,43.6,35.7z"/>
	<path class="st3" d="M58.8,38.7c1.3,0,2.4-1.3,2.4-2.9s-1-2.9-2.4-2.9c-1.3,0-2.4,1.3-2.4,2.9C56.5,37.3,57.5,38.7,58.8,38.7z"/>
	<path class="st3" d="M51.5,45.5c0.1,0,0.3,0,0.4,0c0.8,0,1.4-0.7,1.4-1.5c0-0.8-0.7-1.4-1.5-1.4c-0.7,0-2,0-2.3-0.7
		c-0.4-0.8,0.1-2.6,0.7-3.6c0.3-0.7,0.1-1.5-0.5-2c-0.7-0.3-1.5-0.1-2,0.5c-0.2,0.4-2.1,4-0.5,6.5C47.9,44.8,49.5,45.5,51.5,45.5z"
		/>
	<path class="st3" d="M42.7,46.9c-0.7,0.4-0.9,1.3-0.4,2c0.1,0.2,2.8,4.2,7.7,4.2s7.6-4.1,7.7-4.2c0.4-0.7,0.2-1.5-0.4-2
		c-0.7-0.4-1.5-0.2-2,0.4c0,0-2.1,2.9-5.3,2.9c-3.4,0-5.3-2.9-5.3-2.9C44.2,46.7,43.4,46.5,42.7,46.9z"/>
	<path class="st3" d="M22.9,96.2H7.1c0.1-1,0.3-2.3,0.8-3.8c0.7-2.6,2-6.1,4.3-7.9c4.1-3.4,21.6-12.7,27.4-15.8
		c1,4.9,5.3,8.5,10.4,8.5c5.1,0,9.5-3.7,10.4-8.5c2.2,1.2,6,3.2,10,5.4c0.7,0.3,1.5,0.1,2-0.5c0.3-0.7,0.1-1.5-0.5-2
		c-4.9-2.7-9.5-5.1-11.2-6V59c0.3-0.3,0.7-0.7,1-1c1.6-1.7,2.9-3.9,4-6.5c0.4,0.1,1,0.1,1.4,0.1c2.3,0,4.2-1.1,5.8-3
		c2.6-3.5,2.9-9.5,0.9-12.4c-0.1-0.1-0.2-0.2-0.3-0.4c2.5-8.8,1.7-16.2-2.3-22.1C65.3,5.3,54.7,2.8,51.2,2.6
		C46.1,2.2,42.6,5.1,41,6.7c-2.1-1.2-4.2-1.4-6.4-0.7c-3.8,1.3-7.1,5.4-8.6,11c-0.3,1.1-0.5,2.5-0.7,4c-0.1,0.8,0.5,1.4,1.3,1.5
		c0.8,0.1,1.4-0.5,1.5-1.3c0.1-1.3,0.3-2.5,0.5-3.5c1.2-4.6,3.9-8,6.7-9c1.6-0.5,3.3-0.2,4.9,1c0.7,0.4,1.5,0.3,2-0.2
		c0,0,3.4-4.3,8.7-4c2.9,0.2,12.6,2.4,17.8,9.8c3.4,4.9,4.1,11.2,2.2,18.7c-0.8-0.2-1.6-0.3-2.4-0.2c0-0.4,0-0.8,0-0.8
		c0-0.7-0.4-1.1-1-1.3c-15.4-4.3-22.2-14.4-22.3-14.5c-0.3-0.4-0.8-0.7-1.3-0.7c-0.5,0.1-1,0.4-1.2,0.9C39.2,26.5,32.1,32,32.1,32
		c-0.3,0.2-0.5,0.7-0.5,1.1c0,0,0,0.2,0,0.7c-0.9-0.1-1.6,0-2.4,0.2c-0.4-2.7-0.7-5.3-0.8-7.5c0-0.8-0.8-1.4-1.5-1.3
		c-0.8,0-1.4,0.8-1.3,1.5c0.1,2.8,0.5,6,1,9.4c0,0.1-0.1,0.1-0.1,0.2c-2.2,3-1.7,8.9,0.9,12.4c1.4,2,3.5,3,5.8,3
		c0.4,0,0.9,0,1.4-0.1c1.1,2.6,2.5,4.8,4.1,6.6c0.3,0.3,0.7,0.7,0.9,0.9v6.6c-4.3,2.1-24.4,12.7-29.1,16.5C4.8,86.7,4,97,4,97.5
		C4,98.2,4.7,99,5.4,99h17.4c0.8,0,1.4-0.7,1.4-1.4C24.3,96.8,23.7,96.2,22.9,96.2z M68.2,42.2c0.3-2.1,0.4-4,0.4-5.5
		c1.5-0.4,2.3,0.3,2.9,1.1c1.3,1.8,1.2,6.4-0.8,9.1c-1,1.4-2.3,2-3.9,1.8C67.3,46.7,67.8,44.6,68.2,42.2z M57.9,66.5
		c0,4.3-3.5,7.8-7.8,7.8s-7.8-3.5-7.8-7.8V61c2.3,1.3,4.9,1.8,7.8,1.8h0.1c2.9,0,5.5-0.7,7.8-1.8v5.4H57.9z M29.4,46.9
		c-2-2.7-2.1-7.3-0.8-9.1c0.8-1.1,1.6-1.4,2.8-1.1c0,1.5,0.2,3.5,0.4,5.7c0.3,2.3,0.8,4.5,1.4,6.4C31.7,48.9,30.4,48.2,29.4,46.9z
		 M34.2,33.9c1.6-1.4,6.7-6,10.1-13.2c2.8,3.3,9.6,9.8,21.3,13.4c0.1,3.5-0.1,15.5-6.1,21.9c-2.5,2.6-5.7,4-9.6,4s-7.2-1.3-9.6-3.9
		C34.2,49.5,34.2,36.8,34.2,33.9z"/>
	<path class="st3" d="M96,97.5c0-0.4-0.8-10.8-6.3-15.2c-1.8-1.5-6.1-4.1-12.8-7.8c-0.7-0.4-1.5-0.1-2,0.5c-0.4,0.7-0.1,1.5,0.5,2
		c8.2,4.6,11.2,6.6,12.4,7.6c3.5,2.8,4.7,8.9,5.1,11.7H28.6c-0.8,0-1.4,0.7-1.4,1.4s0.7,1.4,1.4,1.4h66C95.3,99,96.1,98.3,96,97.5z"
		/>
</g>
</svg>
