<?xml version="1.0" encoding="utf-8"?>
<!-- Generator: Adobe Illustrator 24.1.0, SVG Export Plug-In . SVG Version: 6.00 Build 0)  -->
<svg version="1.1" id="Layer_1" xmlns="http://www.w3.org/2000/svg" xmlns:xlink="http://www.w3.org/1999/xlink" x="0px" y="0px"
	 viewBox="0 0 97 98" style="enable-background:new 0 0 97 98;" xml:space="preserve">
<style type="text/css">
	.st0{fill:none;stroke:#40906C;stroke-width:2;stroke-miterlimit:10;}
	.st1{fill:#40906C;}
	.st2{fill:#6149AF;}
	.st3{fill:#A2A2A2;}
</style>
<g>
	<path class="st0" d="M33.9,31.3C15.4,35.1,2.5,54.7,7.1,73.1c1.3,5.1,3.7,9.9,7,13.9"/>
	<g>
		<path class="st1" d="M87.8,31c0,0.9-0.7,1.7-1.7,1.7c-0.9,0-1.7-0.7-1.7-1.7s0.7-1.7,1.7-1.7C87.1,29.3,87.8,30.1,87.8,31z"/>
		<path class="st2" d="M3.3,85.3c0,0.9-0.7,1.7-1.7,1.7S0,86.2,0,85.3c0-0.9,0.7-1.7,1.7-1.7C2.6,83.6,3.3,84.3,3.3,85.3z"/>
		<path class="st1" d="M46,1.7c0,0.9-0.7,1.7-1.7,1.7s-1.7-0.7-1.7-1.7S43.4,0,44.4,0C45.3,0,46,0.7,46,1.7z"/>
		<path class="st1" d="M25,55.8c3.6,0.8,5.8,4.3,5.1,7.9s-4.3,5.8-7.9,5.1c-3.6-0.8-5.8-4.3-5.1-7.9C17.9,57.3,21.4,55,25,55.8z"/>
		<g>
			<path class="st1" d="M88.2,60.2c-0.5,0-1-0.2-1.3-0.6c-0.7-0.7-0.7-1.9,0-2.7l7-7c0.7-0.7,1.9-0.7,2.7,0c0.7,0.7,0.7,1.9,0,2.7
				l-7,7C89.1,60,88.6,60.2,88.2,60.2L88.2,60.2z"/>
			<path class="st1" d="M95.1,60.2c-0.5,0-1-0.2-1.3-0.6l-7-7c-0.7-0.7-0.7-1.9,0-2.7c0.7-0.7,1.9-0.7,2.7,0l7,7
				c0.7,0.7,0.7,1.9,0,2.7C96.1,60,95.6,60.2,95.1,60.2z"/>
		</g>
		<g>
			<path class="st3" d="M48.6,39.8c0-1.5-0.9-2.7-2.2-2.7c-1.2,0-2.2,1.2-2.2,2.7c0,1.5,0.9,2.7,2.2,2.7
				C47.7,42.5,48.6,41.3,48.6,39.8z"/>
			<path class="st3" d="M62.6,42.5c1.2,0,2.2-1.2,2.2-2.7c0-1.5-0.9-2.7-2.2-2.7c-1.2,0-2.2,1.2-2.2,2.7
				C60.5,41.3,61.4,42.5,62.6,42.5z"/>
			<path class="st3" d="M55.9,48.8c0.1,0,0.3,0,0.4,0c0.7,0,1.3-0.6,1.3-1.4c0-0.7-0.6-1.3-1.4-1.3c-0.6,0-1.8,0-2.1-0.6
				c-0.4-0.7,0.1-2.4,0.6-3.3c0.3-0.6,0.1-1.4-0.5-1.8c-0.6-0.3-1.4-0.1-1.8,0.5c-0.2,0.4-1.9,3.7-0.5,6
				C52.6,48.2,54,48.8,55.9,48.8z"/>
			<path class="st3" d="M47.8,50.1c-0.6,0.4-0.8,1.2-0.4,1.8c0.1,0.2,2.6,3.9,7.1,3.9c4.5,0,7-3.8,7.1-3.9c0.4-0.6,0.2-1.4-0.4-1.8
				c-0.6-0.4-1.4-0.2-1.8,0.4c0,0-1.9,2.7-4.9,2.7c-3.1,0-4.9-2.7-4.9-2.7C49.2,49.9,48.4,49.7,47.8,50.1z"/>
			<path class="st3" d="M29.6,95.4H15c0.1-0.9,0.3-2.1,0.7-3.5c0.6-2.4,1.8-5.6,4-7.3c3.8-3.1,19.9-11.7,25.2-14.5
				c0.9,4.5,4.9,7.8,9.6,7.8c4.7,0,8.7-3.4,9.6-7.8c2,1.1,5.5,2.9,9.2,5c0.6,0.3,1.4,0.1,1.8-0.5c0.3-0.6,0.1-1.4-0.5-1.8
				c-4.5-2.5-8.7-4.7-10.3-5.5v-6.1c0.3-0.3,0.6-0.6,0.9-0.9c1.5-1.6,2.7-3.6,3.7-6c0.4,0.1,0.9,0.1,1.3,0.1c2.1,0,3.9-1,5.3-2.8
				c2.4-3.2,2.7-8.7,0.8-11.4c-0.1-0.1-0.2-0.2-0.3-0.4c2.3-8.1,1.6-14.9-2.1-20.3c-5.3-7.7-15.1-10-18.3-10.2
				c-4.7-0.3-7.9,2.3-9.4,3.8c-1.9-1.1-3.9-1.3-5.9-0.6c-3.5,1.2-6.5,5-7.9,10.1c-0.3,1-0.5,2.3-0.6,3.7c-0.1,0.7,0.5,1.3,1.2,1.4
				c0.7,0.1,1.3-0.5,1.4-1.2c0.1-1.2,0.3-2.3,0.5-3.2c1.1-4.2,3.6-7.4,6.2-8.3c1.5-0.5,3-0.2,4.5,0.9c0.6,0.4,1.4,0.3,1.8-0.2
				c0,0,3.1-4,8-3.7c2.7,0.2,11.6,2.2,16.4,9c3.1,4.5,3.8,10.3,2,17.2c-0.7-0.2-1.5-0.3-2.2-0.2c0-0.4,0-0.7,0-0.7
				c0-0.6-0.4-1-0.9-1.2c-14.2-4-20.4-13.2-20.5-13.3c-0.3-0.4-0.7-0.6-1.2-0.6c-0.5,0.1-0.9,0.4-1.1,0.8C44.6,31.3,38,36.4,38,36.4
				c-0.3,0.2-0.5,0.6-0.5,1c0,0,0,0.2,0,0.6c-0.8-0.1-1.5,0-2.2,0.2c-0.4-2.5-0.6-4.9-0.7-6.9c0-0.7-0.7-1.3-1.4-1.2
				c-0.7,0-1.3,0.7-1.2,1.4c0.1,2.6,0.5,5.5,0.9,8.6c0,0.1-0.1,0.1-0.1,0.2c-2,2.8-1.6,8.2,0.8,11.4c1.3,1.8,3.2,2.8,5.3,2.8
				c0.4,0,0.8,0,1.3-0.1c1,2.4,2.3,4.4,3.8,6.1c0.3,0.3,0.6,0.6,0.8,0.8v6.1C40.8,69.3,22.4,79.1,18,82.6c-5.1,4.1-5.8,13.6-5.8,14
				c0,0.7,0.6,1.4,1.3,1.4h16c0.7,0,1.3-0.6,1.3-1.3C30.9,96,30.3,95.4,29.6,95.4z M71.2,45.8c0.3-1.9,0.4-3.7,0.4-5.1
				c1.4-0.4,2.1,0.3,2.7,1c1.2,1.7,1.1,5.9-0.7,8.4c-0.9,1.3-2.1,1.8-3.6,1.7C70.4,49.9,70.9,48,71.2,45.8z M61.8,68.1
				c0,4-3.2,7.2-7.2,7.2s-7.2-3.2-7.2-7.2v-5c2.1,1.2,4.5,1.7,7.2,1.7h0.1c2.7,0,5.1-0.6,7.2-1.7V68.1z M35.6,50.1
				c-1.8-2.5-1.9-6.7-0.7-8.4c0.7-1,1.5-1.3,2.6-1c0,1.4,0.2,3.2,0.4,5.2c0.3,2.1,0.7,4.1,1.3,5.9C37.7,51.9,36.5,51.3,35.6,50.1z
				 M40,38.1c1.5-1.3,6.2-5.5,9.3-12.1c2.6,3,8.8,9,19.6,12.3c0.1,3.2-0.1,14.3-5.6,20.1c-2.3,2.4-5.2,3.7-8.8,3.7
				c-3.6,0-6.6-1.2-8.8-3.6C40,52.5,40,40.8,40,38.1z"/>
			<path class="st3" d="M96.8,96.6c0-0.4-0.7-9.9-5.8-14c-1.7-1.4-5.6-3.8-11.8-7.2c-0.6-0.4-1.4-0.1-1.8,0.5
				c-0.4,0.6-0.1,1.4,0.5,1.8c7.5,4.2,10.3,6.1,11.4,7c3.2,2.6,4.3,8.2,4.7,10.8H34.8c-0.7,0-1.3,0.6-1.3,1.3s0.6,1.3,1.3,1.3h60.7
				C96.2,98,96.9,97.4,96.8,96.6z"/>
		</g>
	</g>
</g>
</svg>
