<?xml version="1.0" encoding="utf-8"?>
<!-- Generator: Adobe Illustrator 24.1.0, SVG Export Plug-In . SVG Version: 6.00 Build 0)  -->
<svg version="1.1" id="Layer_1" xmlns="http://www.w3.org/2000/svg" xmlns:xlink="http://www.w3.org/1999/xlink" x="0px" y="0px"
	 viewBox="0 0 100 100" style="enable-background:new 0 0 100 100;" xml:space="preserve">
<style type="text/css">
	.st0{fill:none;stroke:#40906C;stroke-width:2;stroke-miterlimit:10;}
	.st1{fill:none;}
	.st2{fill:#6149AF;}
	.st3{fill:#40906C;}
	.st4{fill:#A2A2A2;}
</style>
<path class="st0" d="M29.8,22.2c-3.3,1.2-6.6,3-9.5,5.3C5.5,39.1,3,60.4,14.6,75.2c2,2.5,4.3,4.7,6.8,6.5"/>
<path class="st1" d="M17.7,21c1.2,0,2.2-1,2.2-2.2c0-1.2-1-2.2-2.2-2.2s-2.2,1-2.2,2.2C15.5,20,16.5,21,17.7,21z"/>
<path class="st2" d="M81.9,14.8c0.9,0,1.7-0.7,1.7-1.7c0-0.9-0.7-1.7-1.7-1.7c-0.9,0-1.7,0.7-1.7,1.7C80.2,14,80.9,14.8,81.9,14.8z"
	/>
<path class="st3" d="M91.2,21.7c0.9,0,1.7-0.7,1.7-1.7c0-0.9-0.7-1.7-1.7-1.7c-0.9,0-1.7,0.7-1.7,1.7C89.5,20.9,90.3,21.7,91.2,21.7
	z"/>
<path class="st3" d="M80.3,36c0.3,0.3,0.7,0.4,1,0.4c0.4,0,0.8-0.1,1-0.4l1.7-1.7l-2.1-2.1L80.3,34C79.7,34.5,79.7,35.5,80.3,36z"/>
<path class="st3" d="M87.8,30.6c0.6-0.6,0.6-1.5,0-2.1s-1.5-0.6-2.1,0L84,30.2l2.1,2.1L87.8,30.6z"/>
<path class="st3" d="M85.8,36c0.3,0.3,0.7,0.4,1,0.4c0.4,0,0.8-0.1,1-0.4c0.6-0.6,0.6-1.5,0-2.1l-1.7-1.7L84,34.3L85.8,36z"/>
<path class="st3" d="M82.4,28.5c-0.6-0.6-1.5-0.6-2.1,0s-0.6,1.5,0,2.1l1.7,1.7l2.1-2.1L82.4,28.5z"/>
<rect x="82.6" y="30.7" transform="matrix(0.7071 -0.7071 0.7071 0.7071 1.8298 68.8971)" class="st3" width="3" height="3"/>
<circle class="st3" cx="50" cy="80.1" r="4.4"/>
<path class="st3" d="M11.5,15.8c2.8,0,5.2-2.3,5.2-5.2c0-2.8-2.3-5.2-5.2-5.2c-2.8,0-5.2,2.3-5.2,5.2C6.3,13.5,8.6,15.8,11.5,15.8z
	 M11.5,8.4c1.2,0,2.2,1,2.2,2.2s-1,2.2-2.2,2.2s-2.2-1-2.2-2.2C9.3,9.4,10.3,8.4,11.5,8.4z"/>
<g>
	<path class="st4" d="M51.8,40.1c-0.5,0.6-1.6,0.6-2.2,0.1c-0.6-0.5-1.6-0.5-2.2,0.1c-0.4,0.5-0.5,1.3-0.2,1.8
		c0.1,0.1,0.2,0.3,0.3,0.4c0.8,0.7,1.9,1.2,3,1.2c1.4,0,2.5-0.5,3.5-1.6l0,0c0.5-0.6,0.5-1.6-0.1-2.2C53.4,39.5,52.5,39.5,51.8,40.1
		z"/>
	<path class="st4" d="M59.3,32.1c-0.8,0-1.6,0.7-1.6,1.6c0,0.8,0.7,1.6,1.6,1.6c0.8,0,1.6-0.7,1.6-1.6
		C60.8,32.8,60.1,32.1,59.3,32.1z"/>
	<path class="st4" d="M43.8,32.1c-0.8,0-1.6,0.7-1.6,1.6c0,0.8,0.7,1.6,1.6,1.6c0.8,0,1.6-0.7,1.6-1.6
		C45.3,32.8,44.6,32.1,43.8,32.1z"/>
	<g>
		<path class="st1" d="M51,51.7c-0.6,0-1.2,0-1.8-0.1c-0.6-0.1-1.3-0.2-1.9-0.4c-0.2-0.1-0.3-0.1-0.5-0.2c-0.2-0.1-0.5-0.2-0.7-0.3
			v0.6V53v0.1c0,2.5,2.1,4.6,4.6,4.6c2.5,0,4.6-2.1,4.6-4.6V53v-1.7l-0.4-0.2c-0.8,0.3-1.7,0.4-2.5,0.5C51.9,51.6,51.4,51.7,51,51.7
			z"/>
		<path class="st1" d="M30.9,31.7c0.7,0.5,1.3,0.5,1.9,0.3c0.2-0.1,0.3-0.1,0.5-0.1c0.3,0,0.5,0.1,0.7,0.2c0.4,0.2,0.6,0.6,0.7,1.1
			c1.1,5,4,9.5,8.1,12.4c0.5,0.3,1.1,0.7,1.6,0.9c0.5,0.3,1.1,0.5,1.6,0.8c0.7,0.3,1.5,0.6,2.3,0.8c0.2,0.1,0.3,0.1,0.5,0.1
			c1.3,0.3,2.6,0.3,4,0.1c0.4-0.1,0.8-0.2,1.3-0.3l0.7-0.2c0.2-0.1,0.4-0.2,0.6-0.2c0.5-0.2,1.1-0.4,1.6-0.6
			c0.5-0.2,1.1-0.5,1.6-0.8c4.8-2.8,8.4-7.6,9.6-13.1c0.1-0.4,0.4-0.8,0.7-1.1c0.4-0.2,0.8-0.2,1.3-0.1c0.7,0.2,1.3,0.2,1.9-0.2
			c0.1-0.1,0.3-0.2,0.4-0.3c0.4-0.4,0.7-0.8,0.7-1.4c0.1-0.7-0.2-1.6-0.7-2l0,0c-6.6,2.8-17.3,0.1-24.8-3.8
			c-3.3-1.7-5.8-3.6-7.6-5.5c-1.7,7-7.7,8.6-9,8.9c-0.2,0.1-0.3,0.2-0.5,0.3c-0.5,0.4-0.8,1.2-0.7,1.8c0,0.5,0.3,1.1,0.7,1.5
			C30.7,31.5,30.8,31.6,30.9,31.7z"/>
		<path class="st1" d="M43.1,54.4l-7.4,3.4h8.8C43.8,56.8,43.3,55.6,43.1,54.4z"/>
		<path class="st1" d="M37.4,13.9c0-0.8,0.6-1.6,1.4-1.6c0.8-0.1,1.8,0.5,1.8,1.4c0.2,2.3,3.5,5.3,8.4,7.9
			c7.1,3.8,17.5,6.2,22.7,3.4c0.2-0.1,0.4-0.2,0.6-0.2C71.5,13.9,63.1,5.4,52.5,5c-6.8-0.3-13.3,2.7-17.5,8.2
			c-1.6,2.1-2.7,4.6-3.5,7.6c-0.4,1.6-0.6,2.9-0.7,4C32,24.3,37.9,22.6,37.4,13.9z"/>
		<path class="st1" d="M72.4,57.5V34.9c-0.5,0.2-1.1,0.3-1.7,0.3c-1.8,6.4-6.3,11.7-12.3,14.5V51l12.4,5.6
			C71.4,56.9,71.9,57.2,72.4,57.5z"/>
		<path class="st1" d="M32.2,35.3c-0.5,0-1.1-0.1-1.6-0.2v21.6l0,0L43,51v-1.8C37.8,46.2,33.8,41.1,32.2,35.3z"/>
		<path class="st1" d="M30.5,60.8h-0.9H29h-1.6h-0.2h-2.1h-3.7l0.5,6l0.5,6.3l1.8,21.7h52.9L79,73.1l0.5-6.3l0.5-6
			C67.1,60.1,43.4,61.1,30.5,60.8z"/>
		<path class="st4" d="M91,94.9H80.3l2.9-35.5c0-0.4-0.1-0.8-0.4-1.2c-0.3-0.3-0.7-0.5-1.2-0.5h-6.1V32.5c0.4-0.6,0.6-1.4,0.7-2
			c0.1-1.3-0.1-2.4-0.7-3.5v-0.5c0-13.2-10.1-24.1-23-24.6c-7.9-0.3-15.3,3.2-20.2,9.3c-1.9,2.4-3.3,5.4-4,8.7
			c-0.6,2.6-0.9,4.6-0.9,6v1.1c-0.5,0.8-0.8,1.9-0.8,2.9c0,0.8,0.3,1.7,0.7,2.5v25.2h-7.8c-0.4,0-0.8,0.2-1.2,0.5
			C18.1,58.6,18,59,18,59.4L21,94.9H8.9c-0.8,0-1.6,0.7-1.6,1.6s0.7,1.6,1.6,1.6h14h55.9h12.4c0.8,0,1.6-0.7,1.6-1.6
			C92.6,95.6,92,94.9,91,94.9z M31.5,20.7c0.7-2.9,1.9-5.5,3.5-7.6c4.2-5.4,10.7-8.4,17.5-8.2c10.6,0.5,19,9,19.9,19.9
			c-0.2,0-0.4,0.1-0.6,0.2c-5.1,2.8-15.5,0.3-22.7-3.4c-4.9-2.6-8.2-5.6-8.4-7.9c-0.1-0.8-0.9-1.5-1.8-1.4c-0.8,0.1-1.5,0.8-1.4,1.6
			c0.4,8.8-5.4,10.5-6.7,10.7C30.8,23.6,31,22.2,31.5,20.7z M30.5,28.1c0.1-0.1,0.3-0.2,0.5-0.3c1.4-0.3,7.4-1.9,9-8.9
			c1.7,1.9,4.3,3.8,7.6,5.5c7.5,3.9,18.2,6.6,24.8,3.8l0,0c0.5,0.5,0.8,1.3,0.7,2c-0.1,0.5-0.3,0.9-0.7,1.4
			c-0.1,0.1-0.2,0.2-0.4,0.3c-0.6,0.4-1.2,0.4-1.9,0.2c-0.4-0.1-0.8-0.1-1.3,0.1c-0.4,0.2-0.6,0.6-0.7,1.1
			c-1.3,5.6-4.7,10.3-9.6,13.1c-0.5,0.3-1.1,0.5-1.6,0.8c-0.5,0.2-1.1,0.4-1.6,0.6C55.2,47.9,55,48,54.8,48L54,48.2
			c-0.4,0.1-0.8,0.2-1.3,0.3c-1.4,0.2-2.7,0.2-4-0.1c-0.2,0-0.3-0.1-0.5-0.1c-0.7-0.2-1.6-0.5-2.3-0.8c-0.5-0.2-1.1-0.5-1.6-0.8
			s-1.1-0.6-1.6-0.9c-4-3-6.9-7.5-8-12.5c-0.1-0.4-0.3-0.8-0.7-1.1c-0.2-0.1-0.5-0.2-0.7-0.2c-0.2,0-0.3,0-0.5,0.1
			c-0.6,0.2-1.2,0.2-1.9-0.3c-0.1-0.1-0.2-0.2-0.4-0.3c-0.4-0.4-0.7-0.9-0.7-1.5C29.8,29.2,30.1,28.5,30.5,28.1z M58.5,51v-1.3
			c5.9-2.8,10.4-8.1,12.3-14.5c0.5,0,1.2-0.1,1.7-0.2v22.5c-0.5-0.3-1.1-0.6-1.6-0.8L58.5,51z M65.7,57.7h-8.8
			c0.7-0.9,1.3-2.1,1.5-3.4L65.7,57.7z M55.4,51.3V53v0.1c0,2.5-2.1,4.6-4.6,4.6c-2.5,0-4.6-2.1-4.6-4.6V53v-1.7v-0.6
			c0.2,0.1,0.5,0.2,0.7,0.3c0.2,0.1,0.3,0.1,0.5,0.2c0.6,0.2,1.3,0.3,1.9,0.4c0.6,0.1,1.2,0.1,1.8,0.1c0.4,0,0.8,0,1.4-0.1
			c0.8-0.1,1.7-0.3,2.5-0.5L55.4,51.3z M43.1,54.4c0.2,1.3,0.7,2.4,1.5,3.4h-8.9L43.1,54.4z M30.6,56.6
			C30.6,56.6,30.6,56.7,30.6,56.6V34.9c0.5,0.2,1.1,0.3,1.6,0.2c1.6,6,5.6,11,10.8,14V51L30.6,56.6z M79.6,66.8L79,73.1l-1.8,21.7
			h-53l-1.8-21.7l-0.5-6.3l-0.5-6h3.7h2.1h0.2h1.6h0.5h0.9c12.9,0.3,36.6-0.6,49.5,0L79.6,66.8z"/>
	</g>
</g>
<path class="st3" d="M92.9,10.1c0,0.9-0.7,1.7-1.7,1.7c-0.9,0-1.7-0.7-1.7-1.7s0.7-1.7,1.7-1.7C92.2,8.4,92.9,9.1,92.9,10.1z"/>
</svg>
