<?xml version="1.0" encoding="utf-8"?>
<!-- Generator: Adobe Illustrator 24.1.0, SVG Export Plug-In . SVG Version: 6.00 Build 0)  -->
<svg version="1.1" id="Layer_1" xmlns="http://www.w3.org/2000/svg" xmlns:xlink="http://www.w3.org/1999/xlink" x="0px" y="0px"
	 viewBox="0 0 102.2 91.8" style="enable-background:new 0 0 102.2 91.8;" xml:space="preserve">
<style type="text/css">
	.st0{fill:none;stroke:#40906C;stroke-width:2;stroke-miterlimit:10;}
	.st1{fill:none;}
	.st2{fill:#6149AF;}
	.st3{fill:#40906C;}
	.st4{fill:#A2A2A2;}
</style>
<g>
	<path class="st0" d="M53.3,6.4C41.4-1.2,25.6-0.9,14,8.3C-0.8,19.9-3.3,41.2,8.3,56c6.7,8.5,16.6,12.9,26.6,13"/>
	<path class="st1" d="M29.1,13.5c1.2,0,2.2-1,2.2-2.2c0-1.2-1-2.2-2.2-2.2c-1.2,0-2.2,1-2.2,2.2C26.9,12.5,27.9,13.5,29.1,13.5z"/>
	<path class="st2" d="M95.6,13c0.9,0,1.7-0.7,1.7-1.7c0-0.9-0.7-1.7-1.7-1.7c-0.9,0-1.7,0.7-1.7,1.7C93.9,12.2,94.6,13,95.6,13z"/>
	<path class="st3" d="M21.1,49.4c0.9,0,1.7-0.7,1.7-1.7c0-0.9-0.7-1.7-1.7-1.7c-0.9,0-1.7,0.7-1.7,1.7
		C19.4,48.6,20.2,49.4,21.1,49.4z"/>
	<path class="st3" d="M94,34.2c0.3,0.3,0.7,0.4,1,0.4c0.4,0,0.8-0.1,1-0.4l1.7-1.7l-2.1-2.1L94,32.2C93.4,32.7,93.4,33.7,94,34.2z"
		/>
	<path class="st3" d="M101.5,28.8c0.6-0.6,0.6-1.5,0-2.1c-0.6-0.6-1.5-0.6-2.1,0l-1.7,1.7l2.1,2.1L101.5,28.8z"/>
	<path class="st3" d="M99.5,34.2c0.3,0.3,0.7,0.4,1,0.4c0.4,0,0.8-0.1,1-0.4c0.6-0.6,0.6-1.5,0-2.1l-1.7-1.7l-2.1,2.1L99.5,34.2z"/>
	<path class="st3" d="M96.1,26.7c-0.6-0.6-1.5-0.6-2.1,0s-0.6,1.5,0,2.1l1.7,1.7l2.1-2.1L96.1,26.7z"/>
	<rect x="96.3" y="29" transform="matrix(0.7071 -0.7071 0.7071 0.7071 7.0802 78.0682)" class="st3" width="3" height="3"/>
	<circle class="st3" cx="62.3" cy="72.6" r="4.4"/>
	<path class="st3" d="M22.9,28c2.8,0,5.2-2.3,5.2-5.2c0-2.8-2.3-5.2-5.2-5.2c-2.8,0-5.2,2.3-5.2,5.2C17.7,25.7,20,28,22.9,28z
		 M22.9,20.6c1.2,0,2.2,1,2.2,2.2c0,1.2-1,2.2-2.2,2.2c-1.2,0-2.2-1-2.2-2.2C20.7,21.6,21.7,20.6,22.9,20.6z"/>
	<g>
		<path class="st4" d="M63.4,36.6c-0.5,0.6-1.5,0.6-2.1,0.1c-0.6-0.5-1.5-0.5-2.1,0.1c-0.4,0.5-0.5,1.2-0.2,1.7
			c0.1,0.1,0.2,0.3,0.3,0.4c0.8,0.7,1.8,1.1,2.9,1.1c1.3,0,2.4-0.5,3.3-1.5c0,0,0,0,0,0c0.5-0.6,0.5-1.5-0.1-2.1
			C64.9,36,64,36,63.4,36.6z"/>
		<path class="st4" d="M70.5,29c-0.8,0-1.5,0.7-1.5,1.5c0,0.8,0.7,1.5,1.5,1.5s1.5-0.7,1.5-1.5C71.9,29.7,71.3,29,70.5,29z"/>
		<path class="st4" d="M55.7,29c-0.8,0-1.5,0.7-1.5,1.5c0,0.8,0.7,1.5,1.5,1.5c0.8,0,1.5-0.7,1.5-1.5C57.2,29.7,56.5,29,55.7,29z"/>
		<g>
			<path class="st1" d="M62.6,47.7c-0.6,0-1.1,0-1.7-0.1c-0.6-0.1-1.2-0.2-1.8-0.4c-0.2-0.1-0.3-0.1-0.5-0.2
				c-0.2-0.1-0.5-0.2-0.7-0.3v0.6v1.6v0.1c0,2.4,2,4.4,4.4,4.4c2.4,0,4.4-2,4.4-4.4v-0.1v-1.6l-0.4-0.2c-0.8,0.3-1.6,0.4-2.4,0.5
				C63.5,47.6,63,47.7,62.6,47.7z"/>
			<path class="st1" d="M43.5,28.6c0.7,0.5,1.2,0.5,1.8,0.3c0.2-0.1,0.3-0.1,0.5-0.1c0.3,0,0.5,0.1,0.7,0.2c0.4,0.2,0.6,0.6,0.7,1
				c1,4.8,3.8,9,7.7,11.8c0.5,0.3,1,0.7,1.5,0.9c0.5,0.3,1,0.5,1.5,0.8c0.7,0.3,1.4,0.6,2.2,0.8c0.2,0.1,0.3,0.1,0.5,0.1
				c1.2,0.3,2.5,0.3,3.8,0.1c0.4-0.1,0.8-0.2,1.2-0.3l0.7-0.2c0.2-0.1,0.4-0.2,0.6-0.2c0.5-0.2,1-0.4,1.5-0.6c0.5-0.2,1-0.5,1.5-0.8
				c4.6-2.7,8-7.2,9.1-12.5c0.1-0.4,0.4-0.8,0.7-1c0.4-0.2,0.8-0.2,1.2-0.1c0.7,0.2,1.2,0.2,1.8-0.2c0.1-0.1,0.3-0.2,0.4-0.3
				c0.4-0.4,0.7-0.8,0.7-1.3c0.1-0.7-0.2-1.5-0.7-1.9c0,0,0,0,0,0c-6.3,2.7-16.5,0.1-23.6-3.6c-3.1-1.6-5.5-3.4-7.2-5.2
				c-1.6,6.7-7.3,8.2-8.6,8.5c-0.2,0.1-0.3,0.2-0.5,0.3c-0.5,0.4-0.8,1.1-0.7,1.7c0,0.5,0.3,1,0.7,1.4
				C43.3,28.4,43.4,28.5,43.5,28.6z"/>
			<path class="st1" d="M55.1,50.2l-7,3.2h8.4C55.7,52.5,55.3,51.4,55.1,50.2z"/>
			<path class="st1" d="M49.7,11.7c0-0.8,0.6-1.5,1.3-1.5c0.8-0.1,1.7,0.5,1.7,1.3c0.2,2.2,3.3,5,8,7.5c6.8,3.6,16.7,5.9,21.6,3.2
				c0.2-0.1,0.4-0.2,0.6-0.2C82.1,11.7,74.1,3.6,64,3.2c-6.5-0.3-12.7,2.6-16.7,7.8c-1.5,2-2.6,4.4-3.3,7.2
				c-0.4,1.5-0.6,2.8-0.7,3.8C44.5,21.6,50.1,20,49.7,11.7z"/>
			<path class="st1" d="M83,53.2V31.7C82.5,31.9,82,32,81.4,32c-1.7,6.1-6,11.1-11.7,13.8V47l11.8,5.3C82,52.6,82.5,52.9,83,53.2z"
				/>
			<path class="st1" d="M44.7,32c-0.5,0-1-0.1-1.5-0.2v20.6c0,0,0,0,0,0L55,47v-1.7C50,42.4,46.2,37.6,44.7,32z"/>
			<path class="st1" d="M43.1,56.3h-0.9h-0.5h-1.5h-0.2h-2h-3.5l0.5,5.7l0.5,6l1.7,20.7h50.4l1.7-20.7l0.5-6l0.5-5.7
				C77.9,55.7,55.4,56.6,43.1,56.3z"/>
			<path class="st4" d="M100.7,88.8H90.5L93.3,55c0-0.4-0.1-0.8-0.4-1.1c-0.3-0.3-0.7-0.5-1.1-0.5H86v-24c0.4-0.6,0.6-1.3,0.7-1.9
				c0.1-1.2-0.1-2.3-0.7-3.3v-0.5c0-12.6-9.6-22.9-21.9-23.4c-7.5-0.3-14.6,3-19.2,8.9c-1.8,2.3-3.1,5.1-3.8,8.3
				c-0.6,2.5-0.9,4.4-0.9,5.7v1C39.7,25,39.4,26,39.4,27c0,0.8,0.3,1.6,0.7,2.4v24h-7.4c-0.4,0-0.8,0.2-1.1,0.5
				c-0.3,0.3-0.4,0.7-0.4,1.1l2.8,33.8H22.5c-0.8,0-1.5,0.7-1.5,1.5c0,0.8,0.7,1.5,1.5,1.5h13.3h53.2h11.8c0.8,0,1.5-0.7,1.5-1.5
				C102.2,89.5,101.6,88.8,100.7,88.8z M44,18.1c0.7-2.8,1.8-5.2,3.3-7.2c4-5.1,10.2-8,16.7-7.8C74.1,3.6,82.1,11.7,82.9,22
				c-0.2,0-0.4,0.1-0.6,0.2c-4.9,2.7-14.8,0.3-21.6-3.2c-4.7-2.5-7.8-5.3-8-7.5c-0.1-0.8-0.9-1.4-1.7-1.3c-0.8,0.1-1.4,0.8-1.3,1.5
				c0.4,8.4-5.1,10-6.4,10.2C43.4,20.9,43.6,19.6,44,18.1z M43.1,25.2c0.1-0.1,0.3-0.2,0.5-0.3c1.3-0.3,7-1.8,8.6-8.5
				c1.6,1.8,4.1,3.6,7.2,5.2c7.1,3.7,17.3,6.3,23.6,3.6c0,0,0,0,0,0c0.5,0.5,0.8,1.2,0.7,1.9c-0.1,0.5-0.3,0.9-0.7,1.3
				c-0.1,0.1-0.2,0.2-0.4,0.3c-0.6,0.4-1.1,0.4-1.8,0.2c-0.4-0.1-0.8-0.1-1.2,0.1c-0.4,0.2-0.6,0.6-0.7,1c-1.2,5.3-4.5,9.8-9.1,12.5
				c-0.5,0.3-1,0.5-1.5,0.8c-0.5,0.2-1,0.4-1.5,0.6c-0.2,0.1-0.4,0.2-0.6,0.2l-0.7,0.2c-0.4,0.1-0.8,0.2-1.2,0.3
				c-1.3,0.2-2.6,0.2-3.8-0.1c-0.2,0-0.3-0.1-0.5-0.1c-0.7-0.2-1.5-0.5-2.2-0.8c-0.5-0.2-1-0.5-1.5-0.8c-0.5-0.3-1-0.6-1.5-0.9
				C51,39,48.2,34.8,47.2,30c-0.1-0.4-0.3-0.8-0.7-1c-0.2-0.1-0.5-0.2-0.7-0.2c-0.2,0-0.3,0-0.5,0.1c-0.6,0.2-1.1,0.2-1.8-0.3
				c-0.1-0.1-0.2-0.2-0.4-0.3c-0.4-0.4-0.7-0.9-0.7-1.4C42.4,26.2,42.7,25.6,43.1,25.2z M69.7,47v-1.2c5.6-2.7,9.9-7.7,11.7-13.8
				c0.5,0,1.1-0.1,1.6-0.2v21.4c-0.5-0.3-1-0.6-1.5-0.8L69.7,47z M76.6,53.4h-8.4c0.7-0.9,1.2-2,1.4-3.2L76.6,53.4z M66.8,47.3v1.6
				v0.1c0,2.4-2,4.4-4.4,4.4c-2.4,0-4.4-2-4.4-4.4v-0.1v-1.6v-0.6c0.2,0.1,0.5,0.2,0.7,0.3c0.2,0.1,0.3,0.1,0.5,0.2
				c0.6,0.2,1.2,0.3,1.8,0.4c0.6,0.1,1.1,0.1,1.7,0.1c0.4,0,0.8,0,1.3-0.1c0.8-0.1,1.6-0.3,2.4-0.5L66.8,47.3z M55.1,50.2
				c0.2,1.2,0.7,2.3,1.4,3.2H48L55.1,50.2z M43.2,52.3C43.2,52.3,43.2,52.4,43.2,52.3l0-20.6c0.5,0.2,1,0.3,1.5,0.2
				C46.2,37.6,50,42.4,55,45.2V47L43.2,52.3z M89.8,62l-0.5,6l-1.7,20.7H37.1l-1.7-20.7l-0.5-6l-0.5-5.7h3.5h2h0.2h1.5h0.5h0.9
				c12.3,0.3,34.8-0.6,47.1,0L89.8,62z"/>
		</g>
	</g>
	<path class="st3" d="M19.7,71.4c0,0.9-0.7,1.7-1.7,1.7c-0.9,0-1.7-0.7-1.7-1.7s0.7-1.7,1.7-1.7C19,69.7,19.7,70.4,19.7,71.4z"/>
</g>
</svg>
