<?xml version="1.0" encoding="utf-8"?>
<!-- Generator: Adobe Illustrator 24.1.0, SVG Export Plug-In . SVG Version: 6.00 Build 0)  -->
<svg version="1.1" id="Layer_1" xmlns="http://www.w3.org/2000/svg" xmlns:xlink="http://www.w3.org/1999/xlink" x="0px" y="0px"
	 viewBox="0 0 100 100" style="enable-background:new 0 0 100 100;" xml:space="preserve">
<style type="text/css">
	.st0{fill:none;stroke:#40906C;stroke-width:2;stroke-miterlimit:10;}
	.st1{fill:#A2A2A2;}
	.st2{fill:#40906C;}
	.st3{fill:#6149AF;}
</style>
<path class="st0" d="M80.5,71.5c11.4-9.1,15.9-25,10.7-38.7C85.8,19,71.8,10,57.1,11c-8.8,0.6-17,4.6-22.9,11.1"/>
<g>
	<path class="st1" d="M29.2,57.5c0,1.4-1.1,2.5-2.5,2.5s-2.5-1.1-2.5-2.5s1.1-2.5,2.5-2.5C28,55,29.2,56,29.2,57.5z"/>
	<path class="st1" d="M48.9,57.5c0,1.4-1.1,2.5-2.5,2.5s-2.5-1.1-2.5-2.5S45,55,46.4,55C47.7,55,48.9,56,48.9,57.5z"/>
	<path class="st1" d="M77.9,69.1v-1.3c0-1.3-1-2.3-2.3-2.3h-7.4c-1.3,0-2.3,1-2.3,2.3v1.3h-7.4c0-0.3,0.1-0.5,0.1-0.8
		c1.8-0.4,3.5-1.3,4.8-2.7c1.5-1.6,2.4-3.8,2.4-6V57c0-3.1-2.5-5.6-5.6-5.6h-1.4v-0.6c1-0.1,2-0.3,2.9-0.5
		c7.5-1.4,11.1-3.7,11.1-7.1c0-3.9-4.8-6.9-14-8.7v-6.2c0-5.5-4.5-10-10-10c-1.7,0-3.5,0.5-5,1.3c-2.1,1.2-4.5,1.9-6.7,1.9l0,0
		c-2.3,0-4.6-0.6-6.7-1.9c-1.5-0.9-3.2-1.3-5-1.3c-5.5,0-10,4.5-10,10v6.2c-9.2,1.9-14,4.9-14,8.7c0,3.4,3.6,5.8,11.1,7.1
		c0.5,0.1,1,0.2,1.6,0.3v0.8h-1.3c-3.1,0-5.6,2.5-5.6,5.6v2.6c0,2.2,0.8,4.4,2.3,6c1.3,1.4,2.9,2.3,4.8,2.7
		c0.7,4.4,2.7,8.5,5.9,11.6v13c0,2.2,1.8,4.1,4.1,4.1h53.8c2.9,0,5.2-2.3,5.2-5.2V74.4C83.1,71.4,80.8,69.1,77.9,69.1z M68.3,67.9
		h7.2v1.2h-7.3v-1.2H68.3z M25.3,20.8c1.3,0,2.6,0.3,3.8,1c2.5,1.4,5.2,2.2,7.9,2.2l0,0c2.7,0,5.4-0.7,7.9-2.2c1.1-0.7,2.4-1,3.8-1
		c4.2,0,7.6,3.4,7.6,7.6v4.3H28.7c-0.7,0-1.2,0.5-1.2,1.2s0.5,1.2,1.2,1.2h27.7v4.4c0,0.3-0.3,0.6-0.6,0.6H18.3
		c-0.3,0-0.6-0.3-0.6-0.6v-4.4H23c0.7,0,1.2-0.5,1.2-1.2c0-0.7-0.5-1.2-1.2-1.2h-5.3v-4.3C17.7,24.2,21.1,20.8,25.3,20.8z M3.7,43.2
		c0-2.4,4.4-4.8,11.6-6.3v2.5c0,1.7,1.3,3,3,3h37.5c1.7,0,3-1.3,3-3V37c7.2,1.5,11.6,3.9,11.6,6.3c0,1.9-3.2,6.4-33.3,6.4
		S3.7,45.2,3.7,43.2z M22.4,93.1v-11c0.6,0.5,1.3,0.9,2,1.3c0.6,0.3,1.1,0.2,1.6-0.4c0.3-0.6,0.1-1.3-0.4-1.6
		c-5.1-2.9-8.6-8.2-9.2-14c-0.1-0.6-0.5-1-1.1-1.1C12,65.9,9.5,63,9.5,59.7v-2.6c0-1.7,1.4-3.2,3.2-3.2h2.5c0.7,0,1.2-0.5,1.2-1.2
		V51c5.4,0.7,12.3,1,20.7,1c7.7,0,14.2-0.3,19.4-0.9v1.5c0,0.7,0.5,1.2,1.2,1.2h2.6c1.7,0,3.2,1.4,3.2,3.2v2.6
		c0,3.4-2.6,6.2-5.9,6.5c-0.6,0-1,0.5-1.1,1.1c-0.1,0.7-0.2,1.3-0.3,1.9h-8.8c0.2-0.7,0.3-1.5,0.4-2.3c0-0.4-0.1-0.9-0.4-1.2
		c-0.3-0.3-0.7-0.5-1.2-0.5H28.1c-0.4,0-0.9,0.2-1.2,0.5c-0.3,0.4-0.4,0.9-0.4,1.3c0.3,5.5,4.7,9.9,10.2,10v6.7h-2.1
		c-1.4,0-2.8-0.2-4.2-0.5c-0.6-0.1-1.3,0.3-1.4,0.9c-0.1,0.6,0.3,1.3,0.9,1.4c1.5,0.4,3.1,0.5,4.7,0.5h2.1v5.9c0,1,0.3,2,0.8,2.8
		H24.1C23.2,94.6,22.4,93.9,22.4,93.1z M36.7,74.4v0.2c-3.9-0.2-7.2-3.1-7.7-7h16.1c-0.1,0.5-0.2,1.1-0.4,1.6h-2.8
		C39,69.1,36.7,71.4,36.7,74.4z M80.7,91.9c0,1.6-1.3,2.8-2.8,2.8h-36c-1.6,0-2.8-1.3-2.8-2.8V74.4c0-1.6,1.3-2.8,2.8-2.8h36
		c1.6,0,2.8,1.3,2.8,2.8V91.9z"/>
	<path class="st1" d="M53.7,75.9c-3.8,0-6.8,3.1-6.8,6.8c0,3.7,3.1,6.8,6.8,6.8c3.8,0,6.8-3.1,6.8-6.8
		C60.5,78.9,57.5,75.9,53.7,75.9z M53.7,87.1c-2.5,0-4.4-2-4.4-4.4c0-2.4,2-4.4,4.4-4.4c2.5,0,4.4,2,4.4,4.4
		C58.1,85.1,56.1,87.1,53.7,87.1z"/>
	<path class="st1" d="M53.7,72.2c-5.8,0-10.5,4.7-10.5,10.5s4.7,10.5,10.5,10.5c2.1,0,4.2-0.6,5.9-1.8c0.5-0.4,0.7-1.1,0.3-1.7
		c-0.4-0.5-1.1-0.7-1.7-0.3c-1.3,0.9-2.9,1.4-4.6,1.4c-4.4,0-8.1-3.6-8.1-8.1c0-4.4,3.6-8.1,8.1-8.1s8.1,3.6,8.1,8.1
		c0,1.1-0.2,2.1-0.6,3.1c-0.3,0.6,0,1.3,0.6,1.6c0.6,0.3,1.3,0,1.6-0.6c0.5-1.3,0.8-2.6,0.8-4C64.1,76.9,59.5,72.2,53.7,72.2z"/>
	<path class="st1" d="M76.5,74.6h-7.3c-1.5,0-2.7,1.2-2.7,2.7v0.4c0,1.5,1.2,2.7,2.7,2.7h7.3c1.5,0,2.7-1.2,2.7-2.7v-0.4
		C79.2,75.8,78,74.6,76.5,74.6z M76.8,77.6c0,0.2-0.1,0.3-0.3,0.3h-7.3c-0.2,0-0.3-0.1-0.3-0.3v-0.4c0-0.2,0.1-0.3,0.3-0.3h7.3
		c0.2,0,0.3,0.1,0.3,0.3V77.6z"/>
</g>
<path class="st2" d="M94.3,10.8c0,0.9-0.7,1.7-1.7,1.7c-0.9,0-1.7-0.7-1.7-1.7s0.7-1.7,1.7-1.7S94.3,9.9,94.3,10.8z"/>
<path class="st2" d="M92.6,17.5c0,0.5-0.3,0.9-0.8,0.9c-0.5,0-0.8-0.4-0.8-0.9s0.3-0.9,0.8-0.9S92.6,17.1,92.6,17.5z"/>
<path class="st2" d="M10.5,79.8c0,0.9-0.7,1.7-1.7,1.7s-1.7-0.7-1.7-1.7c0-0.9,0.7-1.7,1.7-1.7C9.7,78.2,10.5,78.9,10.5,79.8z"/>
<path class="st2" d="M11.9,1.4c3.6,0.8,5.8,4.3,5.1,7.9c-0.8,3.6-4.3,5.8-7.9,5.1C5.5,13.6,3.3,10.1,4,6.5S8.3,0.6,11.9,1.4z
	 M9.9,10.7c1.5,0.3,3.1-0.6,3.4-2.2c0.3-1.5-0.6-3.1-2.2-3.4C9.6,4.8,8,5.7,7.7,7.3C7.4,8.8,8.3,10.3,9.9,10.7z"/>
<path class="st3" d="M87.8,14.2c0,0.9-0.7,1.7-1.7,1.7c-0.9,0-1.7-0.7-1.7-1.7s0.7-1.7,1.7-1.7S87.8,13.3,87.8,14.2z"/>
<path class="st2" d="M89.9,97.3c-0.4,0-0.8-0.1-1-0.4c-0.6-0.6-0.6-1.5,0-2.1l5.4-5.4c0.6-0.6,1.5-0.6,2.1,0s0.6,1.5,0,2.1L91,96.9
	C90.6,97.1,90.2,97.3,89.9,97.3L89.9,97.3z"/>
<path class="st2" d="M95.3,97.3c-0.4,0-0.8-0.1-1-0.4l-5.4-5.4c-0.6-0.6-0.6-1.5,0-2.1s1.5-0.6,2.1,0l5.4,5.4c0.6,0.6,0.6,1.5,0,2.1
	C96,97.1,95.7,97.3,95.3,97.3z"/>
</svg>
