<?xml version="1.0" encoding="utf-8"?>
<!-- Generator: Adobe Illustrator 24.1.0, SVG Export Plug-In . SVG Version: 6.00 Build 0)  -->
<svg version="1.1" id="Layer_1" xmlns="http://www.w3.org/2000/svg" xmlns:xlink="http://www.w3.org/1999/xlink" x="0px" y="0px"
	 viewBox="0 0 97 98" style="enable-background:new 0 0 97 98;" xml:space="preserve">
<style type="text/css">
	.st0{fill:none;stroke:#40906C;stroke-width:2;stroke-miterlimit:10;}
	.st1{fill:#A2A2A2;}
	.st2{fill:#40906C;}
	.st3{fill:#6149AF;}
</style>
<g>
	<path class="st0" d="M81.1,68.3C92.9,59.7,98,44,93.3,30.1C88.6,16,74.9,6.5,60.2,6.9C51.4,7.1,43,10.8,36.9,17.1"/>
	<g>
		<path class="st1" d="M26.7,52.5c0,1.4-1.1,2.5-2.5,2.5c-1.4,0-2.5-1.1-2.5-2.5c0-1.4,1.1-2.5,2.5-2.5C25.5,50,26.7,51.1,26.7,52.5
			z"/>
		<path class="st1" d="M46.4,52.5c0,1.4-1.1,2.5-2.5,2.5c-1.4,0-2.5-1.1-2.5-2.5c0-1.4,1.1-2.5,2.5-2.5C45.2,50,46.4,51.1,46.4,52.5
			z"/>
		<path class="st1" d="M75.4,64.2v-1.3c0-1.3-1-2.3-2.3-2.3h-7.4c-1.3,0-2.3,1-2.3,2.3v1.3h-7.4c0-0.3,0.1-0.5,0.1-0.8
			c1.8-0.4,3.5-1.3,4.8-2.7c1.5-1.6,2.4-3.8,2.4-6v-2.6c0-3.1-2.5-5.6-5.6-5.6h-1.4v-0.6c1-0.1,2-0.3,2.9-0.5
			c7.5-1.4,11.1-3.7,11.1-7.1c0-3.9-4.8-6.9-14-8.7v-6.2c0-5.5-4.5-10-10-10c-1.7,0-3.5,0.5-5,1.3c-2.1,1.2-4.5,1.9-6.7,1.9h0
			c-2.3,0-4.6-0.6-6.7-1.9c-1.5-0.9-3.2-1.3-5-1.3c-5.5,0-10,4.5-10,10v6.2c-9.2,1.9-14,4.9-14,8.7c0,3.4,3.6,5.8,11.1,7.1
			c0.5,0.1,1,0.2,1.6,0.3v0.8h-1.3c-3.1,0-5.6,2.5-5.6,5.6v2.6c0,2.2,0.8,4.4,2.3,6c1.3,1.4,2.9,2.3,4.8,2.7
			c0.7,4.4,2.7,8.5,5.9,11.6v13c0,2.2,1.8,4.1,4.1,4.1h53.8c2.9,0,5.2-2.3,5.2-5.2V69.4C80.6,66.5,78.3,64.2,75.4,64.2z M65.8,63H73
			v1.2h-7.3V63z M22.8,15.8c1.3,0,2.6,0.3,3.8,1c2.5,1.4,5.2,2.2,7.9,2.2h0c2.7,0,5.4-0.7,7.9-2.2c1.1-0.7,2.4-1,3.8-1
			c4.2,0,7.6,3.4,7.6,7.6v4.3H26.2c-0.7,0-1.2,0.5-1.2,1.2s0.5,1.2,1.2,1.2h27.7v4.4c0,0.3-0.3,0.6-0.6,0.6H15.8
			c-0.3,0-0.6-0.3-0.6-0.6v-4.4h5.3c0.7,0,1.2-0.5,1.2-1.2s-0.5-1.2-1.2-1.2h-5.3v-4.3C15.2,19.2,18.6,15.8,22.8,15.8z M1.2,38.3
			c0-2.4,4.4-4.8,11.6-6.3v2.5c0,1.7,1.3,3,3,3h37.5c1.7,0,3-1.3,3-3V32c7.2,1.5,11.6,3.9,11.6,6.3c0,1.9-3.2,6.4-33.3,6.4
			S1.2,40.2,1.2,38.3z M19.9,88.1v-11c0.6,0.5,1.3,0.9,2,1.3c0.6,0.3,1.1,0.2,1.6-0.4c0.3-0.6,0.1-1.3-0.4-1.6
			c-5.1-2.9-8.6-8.2-9.2-14c-0.1-0.6-0.5-1-1.1-1.1C9.5,60.9,7,58.1,7,54.7v-2.6c0-1.7,1.4-3.2,3.2-3.2h2.5c0.7,0,1.2-0.5,1.2-1.2
			v-1.7c5.4,0.7,12.3,1,20.7,1c7.7,0,14.2-0.3,19.4-0.9v1.5c0,0.7,0.5,1.2,1.2,1.2h2.6c1.7,0,3.2,1.4,3.2,3.2v2.6
			c0,3.4-2.6,6.2-5.9,6.5c-0.6,0-1,0.5-1.1,1.1c-0.1,0.7-0.2,1.3-0.3,1.9h-8.8c0.2-0.7,0.3-1.5,0.4-2.3c0-0.4-0.1-0.9-0.4-1.2
			c-0.3-0.3-0.7-0.5-1.2-0.5H25.6c-0.4,0-0.9,0.2-1.2,0.5C24.1,61,24,61.5,24,61.9c0.3,5.5,4.7,9.9,10.2,10v6.7h-2.1
			c-1.4,0-2.8-0.2-4.2-0.5c-0.6-0.1-1.3,0.3-1.4,0.9c-0.1,0.6,0.3,1.3,0.9,1.4c1.5,0.4,3.1,0.5,4.7,0.5h2.1v5.9c0,1,0.3,2,0.8,2.8
			H21.6C20.7,89.7,19.9,89,19.9,88.1z M34.2,69.4v0.2c-3.9-0.2-7.2-3.1-7.7-7h16.1c-0.1,0.5-0.2,1.1-0.4,1.6h-2.8
			C36.5,64.2,34.2,66.5,34.2,69.4z M78.2,86.9c0,1.6-1.3,2.8-2.8,2.8h-36c-1.6,0-2.8-1.3-2.8-2.8V69.4c0-1.6,1.3-2.8,2.8-2.8h36
			c1.6,0,2.8,1.3,2.8,2.8V86.9z"/>
		<path class="st1" d="M51.2,70.9c-3.8,0-6.8,3.1-6.8,6.8s3.1,6.8,6.8,6.8c3.8,0,6.8-3.1,6.8-6.8S55,70.9,51.2,70.9z M51.2,82.2
			c-2.5,0-4.4-2-4.4-4.4s2-4.4,4.4-4.4c2.5,0,4.4,2,4.4,4.4S53.6,82.2,51.2,82.2z"/>
		<path class="st1" d="M51.2,67.3c-5.8,0-10.5,4.7-10.5,10.5s4.7,10.5,10.5,10.5c2.1,0,4.2-0.6,5.9-1.8c0.5-0.4,0.7-1.1,0.3-1.7
			c-0.4-0.5-1.1-0.7-1.7-0.3c-1.3,0.9-2.9,1.4-4.6,1.4c-4.4,0-8.1-3.6-8.1-8.1c0-4.4,3.6-8.1,8.1-8.1s8.1,3.6,8.1,8.1
			c0,1.1-0.2,2.1-0.6,3.1c-0.3,0.6,0,1.3,0.6,1.6c0.6,0.3,1.3,0,1.6-0.6c0.5-1.3,0.8-2.6,0.8-4C61.6,72,57,67.3,51.2,67.3z"/>
		<path class="st1" d="M74,69.6h-7.3c-1.5,0-2.7,1.2-2.7,2.7v0.4c0,1.5,1.2,2.7,2.7,2.7H74c1.5,0,2.7-1.2,2.7-2.7v-0.4
			C76.7,70.8,75.5,69.6,74,69.6z M74.3,72.7c0,0.2-0.1,0.3-0.3,0.3h-7.3c-0.2,0-0.3-0.1-0.3-0.3v-0.4c0-0.2,0.1-0.3,0.3-0.3H74
			c0.2,0,0.3,0.1,0.3,0.3V72.7z"/>
	</g>
	<path class="st2" d="M97,14.8c0,0.9-0.7,1.7-1.7,1.7c-0.9,0-1.7-0.7-1.7-1.7s0.7-1.7,1.7-1.7C96.3,13.1,97,13.9,97,14.8z"/>
	<path class="st2" d="M9,78.8c0,0.9-0.7,1.7-1.7,1.7s-1.7-0.7-1.7-1.7c0-0.9,0.7-1.7,1.7-1.7C8.2,77.2,9,77.9,9,78.8z"/>
	<path class="st2" d="M79.6,27.3c3.6,0.8,5.8,4.3,5.1,7.9c-0.8,3.6-4.3,5.8-7.9,5.1c-3.6-0.8-5.8-4.3-5.1-7.9S76,26.5,79.6,27.3z
		 M77.6,36.6c1.5,0.3,3.1-0.6,3.4-2.2c0.3-1.5-0.6-3.1-2.2-3.4c-1.5-0.3-3.1,0.6-3.4,2.2C75.1,34.7,76,36.2,77.6,36.6z"/>
	<g>
		<path class="st3" d="M84.6,58.4c0,0.9-0.7,1.7-1.7,1.7c-0.9,0-1.7-0.7-1.7-1.7s0.7-1.7,1.7-1.7C83.9,56.7,84.6,57.5,84.6,58.4z"/>
		<path class="st2" d="M91.4,81.8c-0.4,0-0.8-0.1-1-0.4c-0.6-0.6-0.6-1.5,0-2.1l5.4-5.4c0.6-0.6,1.5-0.6,2.1,0
			c0.6,0.6,0.6,1.5,0,2.1l-5.4,5.4C92.1,81.6,91.7,81.8,91.4,81.8L91.4,81.8z"/>
		<path class="st2" d="M96.8,81.8c-0.4,0-0.8-0.1-1-0.4l-5.4-5.4c-0.6-0.6-0.6-1.5,0-2.1c0.6-0.6,1.5-0.6,2.1,0l5.4,5.4
			c0.6,0.6,0.6,1.5,0,2.1C97.5,81.6,97.2,81.8,96.8,81.8z"/>
	</g>
</g>
</svg>
