<?xml version="1.0" encoding="utf-8"?>
<!-- Generator: Adobe Illustrator 24.1.0, SVG Export Plug-In . SVG Version: 6.00 Build 0)  -->
<svg version="1.1" id="Layer_1" xmlns="http://www.w3.org/2000/svg" xmlns:xlink="http://www.w3.org/1999/xlink" x="0px" y="0px"
	 viewBox="0 0 128 128" style="enable-background:new 0 0 128 128;" xml:space="preserve">
<style type="text/css">
	.st0{fill-rule:evenodd;clip-rule:evenodd;fill:#FEBB01;}
</style>
<g>
	<path class="st0" d="M76.2,39h-24c-7.7,0-14,6.3-14,14v24c0,7.7,6.3,14,14,14h24c7.7,0,14-6.3,14-14V53C90.2,45.3,83.9,39,76.2,39z
		 M64.5,81.3c-9,0-16.3-7.2-16.3-16.2s7.2-16.3,16.2-16.3S80.7,56.1,80.7,65C80.7,74,73.5,81.3,64.5,81.3z M80.7,51.9
		c-2,0-3.6-1.6-3.6-3.6s1.6-3.6,3.6-3.6c2.1,0,3.7,1.7,3.6,3.6C84.3,50.3,82.7,51.9,80.7,51.9z"/>
	<ellipse transform="matrix(0.7071 -0.7071 0.7071 0.7071 -27.1703 64.605)" class="st0" cx="64.4" cy="65.1" rx="11.2" ry="11.2"/>
	<path class="st0" d="M64.5,1C29.5,1,1,29.5,1,64.5S29.5,128,64.5,128S128,99.5,128,64.5S99.5,1,64.5,1z M95.2,77
		c0,10.5-8.5,19-19,19h-24c-10.5,0-19-8.5-19-19V53c0-10.5,8.5-19,19-19h24c10.5,0,19,8.5,19,19V77z"/>
</g>
</svg>
