<?xml version="1.0" encoding="utf-8"?>
<!-- Generator: Adobe Illustrator 24.1.0, SVG Export Plug-In . SVG Version: 6.00 Build 0)  -->
<svg version="1.1" id="Layer_1" xmlns="http://www.w3.org/2000/svg" xmlns:xlink="http://www.w3.org/1999/xlink" x="0px" y="0px"
	 viewBox="0 0 128 128" style="enable-background:new 0 0 128 128;" xml:space="preserve">
<style type="text/css">
	.st0{fill-rule:evenodd;clip-rule:evenodd;fill:#FFFFFF;}
	.st1{fill:#5834B3;}
</style>
<g id="Page-1">
	<g id="Mail">
		<path id="Oval-1" class="st0" d="M64,0.5c-35.3,0-64,28.7-64,64s28.7,64,64,64s64-28.7,64-64S99.3,0.5,64,0.5z"/>
	</g>
</g>
<g id="XMLID_97_">
	<path id="XMLID_102_" class="st1" d="M51.6,45.5c1.8,0,3.4,0.1,4.9,0.5c1.5,0.3,2.7,0.8,3.8,1.5c1,0.7,1.9,1.7,2.4,2.8
		c0.6,1.2,0.9,2.7,0.9,4.4c0,1.9-0.4,3.4-1.3,4.7c-0.9,1.3-2.1,2.3-3.8,3.1c2.3,0.7,4,1.8,5.1,3.5c1.1,1.7,1.7,3.7,1.7,6
		c0,1.9-0.4,3.5-1.1,4.9c-0.7,1.4-1.7,2.5-3,3.4c-1.2,0.9-2.7,1.5-4.2,1.9c-1.6,0.4-3.2,0.6-4.9,0.6H34V45.5H51.6z M50.5,60.6
		c1.5,0,2.7-0.3,3.6-1c0.9-0.7,1.4-1.8,1.4-3.4c0-0.9-0.1-1.6-0.5-2.2c-0.3-0.6-0.7-1-1.3-1.3c-0.5-0.3-1.1-0.5-1.8-0.7
		c-0.7-0.1-1.4-0.2-2.1-0.2h-7.7v8.7L50.5,60.6L50.5,60.6z M51,76.5c0.8,0,1.6-0.1,2.3-0.2c0.7-0.2,1.4-0.4,1.9-0.8
		c0.5-0.4,1-0.9,1.3-1.5c0.3-0.6,0.5-1.4,0.5-2.4c0-1.9-0.5-3.3-1.6-4.1c-1.1-0.8-2.5-1.2-4.3-1.2h-8.9v10.3L51,76.5L51,76.5z"/>
	<path id="XMLID_99_" class="st1" d="M77,76.3c1.1,1.1,2.7,1.6,4.8,1.6c1.5,0,2.8-0.4,3.9-1.1c1.1-0.8,1.7-1.6,2-2.4h6.5
		c-1,3.3-2.7,5.6-4.8,7c-2.2,1.4-4.8,2.1-7.8,2.1c-2.1,0-4.1-0.3-5.8-1c-1.7-0.7-3.2-1.6-4.4-2.9c-1.2-1.3-2.1-2.8-2.7-4.5
		c-0.6-1.7-1-3.7-1-5.8c0-2,0.3-3.9,1-5.7c0.7-1.8,1.6-3.3,2.8-4.5c1.2-1.3,2.7-2.3,4.4-3c1.7-0.7,3.6-1.1,5.6-1.1
		c2.3,0,4.3,0.4,6,1.3c1.7,0.9,3.1,2.1,4.2,3.6c1.1,1.5,1.9,3.2,2.4,5.1c0.5,1.9,0.7,3.9,0.5,6H75.1C75.1,73.2,75.9,75.3,77,76.3z
		 M85.5,62.1c-0.9-1-2.4-1.5-4.2-1.5c-1.2,0-2.2,0.2-3,0.6c-0.8,0.4-1.4,0.9-1.9,1.5c-0.5,0.6-0.8,1.2-1,1.9
		c-0.2,0.7-0.3,1.3-0.3,1.8h12.1C87,64.5,86.4,63.1,85.5,62.1z"/>
	<rect id="XMLID_98_" x="73.6" y="48" class="st1" width="15.1" height="3.7"/>
</g>
</svg>
