<?xml version="1.0" encoding="utf-8"?>
<!-- Generator: Adobe Illustrator 24.1.0, SVG Export Plug-In . SVG Version: 6.00 Build 0)  -->
<svg version="1.1" id="Layer_1" xmlns="http://www.w3.org/2000/svg" xmlns:xlink="http://www.w3.org/1999/xlink" x="0px" y="0px"
	 viewBox="0 0 128 128" style="enable-background:new 0 0 128 128;" xml:space="preserve">
<style type="text/css">
	.st0{fill-rule:evenodd;clip-rule:evenodd;fill:#FEBB01;}
	.st1{fill:#FEBB01;}
</style>
<g id="Page-1_1_">
	<g id="Mail_1_">
		<path id="Oval-1_1_" class="st0" d="M64.5,0.5c-35.3,0-64,28.7-64,64s28.7,64,64,64s64-28.7,64-64S99.8,0.5,64.5,0.5z M64.5,8.2
			C33.4,8.2,8.2,33.4,8.2,64.5s25.2,56.3,56.3,56.3s56.3-25.2,56.3-56.3S95.6,8.2,64.5,8.2z"/>
	</g>
</g>
<g id="XMLID_1_">
	<path id="XMLID_4_" class="st1" d="M52.1,45.5c1.8,0,3.4,0.1,4.9,0.5c1.5,0.3,2.7,0.8,3.8,1.5c1,0.7,1.9,1.7,2.4,2.8
		c0.6,1.2,0.9,2.7,0.9,4.4c0,1.9-0.4,3.4-1.3,4.7c-0.9,1.3-2.1,2.3-3.8,3.1c2.3,0.7,4,1.8,5.1,3.5c1.1,1.7,1.7,3.7,1.7,6
		c0,1.9-0.4,3.5-1.1,4.9c-0.7,1.4-1.7,2.5-3,3.4c-1.2,0.9-2.7,1.5-4.2,1.9c-1.6,0.4-3.2,0.6-4.9,0.6H34.5V45.5H52.1z M51,60.6
		c1.5,0,2.7-0.3,3.6-1c0.9-0.7,1.4-1.8,1.4-3.4c0-0.9-0.1-1.6-0.5-2.2c-0.3-0.6-0.7-1-1.3-1.3c-0.5-0.3-1.1-0.5-1.8-0.7
		c-0.7-0.1-1.4-0.2-2.1-0.2h-7.7v8.7L51,60.6L51,60.6z M51.5,76.5c0.8,0,1.6-0.1,2.3-0.2c0.7-0.2,1.4-0.4,1.9-0.8s1-0.9,1.3-1.5
		s0.5-1.4,0.5-2.4c0-1.9-0.5-3.3-1.6-4.1c-1.1-0.8-2.5-1.2-4.3-1.2h-8.9v10.3L51.5,76.5L51.5,76.5z"/>
	<path id="XMLID_3_" class="st1" d="M77.5,76.3c1.1,1.1,2.7,1.6,4.8,1.6c1.5,0,2.8-0.4,3.9-1.1c1.1-0.8,1.7-1.6,2-2.4h6.5
		c-1,3.3-2.7,5.6-4.8,7c-2.2,1.4-4.8,2.1-7.8,2.1c-2.1,0-4.1-0.3-5.8-1c-1.7-0.7-3.2-1.6-4.4-2.9c-1.2-1.3-2.1-2.8-2.7-4.5
		s-1-3.7-1-5.8c0-2,0.3-3.9,1-5.7s1.6-3.3,2.8-4.5c1.2-1.3,2.7-2.3,4.4-3C78.1,55.4,80,55,82,55c2.3,0,4.3,0.4,6,1.3
		c1.7,0.9,3.1,2.1,4.2,3.6s1.9,3.2,2.4,5.1c0.5,1.9,0.7,3.9,0.5,6H75.6C75.6,73.2,76.4,75.3,77.5,76.3z M86,62.1
		c-0.9-1-2.4-1.5-4.2-1.5c-1.2,0-2.2,0.2-3,0.6c-0.8,0.4-1.4,0.9-1.9,1.5s-0.8,1.2-1,1.9c-0.2,0.7-0.3,1.3-0.3,1.8h12.1
		C87.5,64.5,86.9,63.1,86,62.1z"/>
	<rect id="XMLID_2_" x="74.1" y="48" class="st1" width="15.1" height="3.7"/>
</g>
</svg>
