<?xml version="1.0" encoding="utf-8"?>
<!-- Generator: Adobe Illustrator 24.1.0, SVG Export Plug-In . SVG Version: 6.00 Build 0)  -->
<svg version="1.1" id="Layer_1" xmlns="http://www.w3.org/2000/svg" xmlns:xlink="http://www.w3.org/1999/xlink" x="0px" y="0px"
	 viewBox="0 0 128 128" style="enable-background:new 0 0 128 128;" xml:space="preserve">
<style type="text/css">
	.st0{fill:#FEBB01;}
	.st1{fill-rule:evenodd;clip-rule:evenodd;fill:#FEBB01;}
</style>
<rect x="42.1" y="53.8" class="st0" width="9.7" height="34.4"/>
<path class="st0" d="M75.1,53.8c-8.3,0-8.4,4.8-8.4,5.1v-5.1h-9.9v34.4h9.9V68.5c0-1.6,0.5-4.9,5.1-4.9s4.6,4.7,4.6,4.7v19.8h9.8
	V66.7C86.2,56.6,80.7,53.8,75.1,53.8z"/>
<circle class="st0" cx="46.9" cy="46.6" r="4.9"/>
<g id="Page-1_1_">
	<g id="Mail_1_">
		<path id="Oval-1_1_" class="st1" d="M64.5,1C29.5,1,1,29.5,1,64.5S29.5,128,64.5,128S128,99.5,128,64.5S99.5,1,64.5,1z M64.5,8.6
			c-30.9,0-55.9,25-55.9,55.9s25,55.9,55.9,55.9s55.9-25,55.9-55.9S95.4,8.6,64.5,8.6z"/>
	</g>
</g>
</svg>
