<?xml version="1.0" encoding="utf-8"?>
<!-- Generator: Adobe Illustrator 24.1.0, SVG Export Plug-In . SVG Version: 6.00 Build 0)  -->
<svg version="1.1" id="Layer_1" xmlns="http://www.w3.org/2000/svg" xmlns:xlink="http://www.w3.org/1999/xlink" x="0px" y="0px"
	 viewBox="0 0 128 128" style="enable-background:new 0 0 128 128;" xml:space="preserve">
<style type="text/css">
	.st0{fill-rule:evenodd;clip-rule:evenodd;fill:#14f501;}
	.st1{fill:#5834B3;}
</style>
<g id="Page-1_1_">
	<g id="Mail_1_">
		<path id="Oval-1_1_" class="st0" d="M64.3,0C29.3,0,0.8,28.5,0.8,63.5S29.3,127,64.3,127s63.5-28.5,63.5-63.5S99.3,0,64.3,0z"/>
	</g>
</g>
<rect x="42" y="52.8" class="st1" width="9.7" height="34.4"/>
<path class="st1" d="M74.9,52.8c-8.3,0-8.4,4.8-8.4,5.1v-5.1h-9.9v34.4h9.9V67.6c0-1.5,0.5-4.8,5.1-4.8s4.6,4.7,4.6,4.7v19.8H86
	V65.8C86,55.6,80.5,52.8,74.9,52.8z"/>
<circle class="st1" cx="46.8" cy="45.6" r="4.8"/>
<g>
	<path class="st1" d="M281.6,37.7c7.7,0,13.9,6.2,13.9,13.9v24.1c0,7.7-6.2,13.9-13.9,13.9h-24.1c-7.7,0-13.9-6.2-13.9-13.9V51.6
		c0-7.7,6.2-13.9,13.9-13.9H281.6 M281.6,32.6h-24.1c-10.5,0-19,8.5-19,19v24.1c0,10.5,8.5,19,19,19h24.1c10.5,0,19-8.5,19-19V51.6
		C300.5,41.1,292,32.6,281.6,32.6z"/>
	<path class="st1" d="M286.1,43.4c-2,0-3.6,1.6-3.6,3.6c0,2,1.6,3.6,3.6,3.6c2,0,3.6-1.6,3.6-3.6C289.7,45,288.1,43.4,286.1,43.4
		L286.1,43.4z"/>
	<path class="st1" d="M269.7,52.5c6.2,0,11.2,5,11.2,11.2c0,6.2-5,11.2-11.2,11.2c-6.2,0-11.2-5-11.2-11.2c0,0,0,0,0,0
		C258.5,57.5,263.5,52.5,269.7,52.5 M269.7,47.5c-9,0-16.2,7.3-16.2,16.3S260.8,80,269.8,80c9,0,16.2-7.3,16.2-16.3
		C286,54.7,278.7,47.4,269.7,47.5C269.7,47.5,269.7,47.5,269.7,47.5z"/>
</g>
</svg>
