<?xml version="1.0" encoding="utf-8"?>
<!-- Generator: Adobe Illustrator 24.1.0, SVG Export Plug-In . SVG Version: 6.00 Build 0)  -->
<svg version="1.1" id="Layer_1" xmlns="http://www.w3.org/2000/svg" xmlns:xlink="http://www.w3.org/1999/xlink" x="0px" y="0px"
	 viewBox="0 0 128 128" style="enable-background:new 0 0 128 128;" xml:space="preserve">
<style type="text/css">
	.st0{fill:#14f501;}
	.st1{fill-rule:evenodd;clip-rule:evenodd;fill:#14f501;}
</style>
<rect x="41.9" y="52.8" class="st0" width="9.7" height="34.4"/>
<path class="st0" d="M74.9,52.8c-8.3,0-8.4,4.8-8.4,5.1v-5.1h-9.9v34.4h9.9V67.5c0-1.6,0.5-4.9,5.1-4.9s4.6,4.7,4.6,4.7v19.8H86
	V65.7C86,55.6,80.5,52.8,74.9,52.8z"/>
<circle class="st0" cx="46.7" cy="45.6" r="4.9"/>
<g id="Page-1_1_">
	<g id="Mail_1_">
		<path id="Oval-1_1_" class="st1" d="M64.3,0C29.3,0,0.8,28.5,0.8,63.5S29.3,127,64.3,127s63.5-28.5,63.5-63.5S99.3,0,64.3,0z
			 M64.3,7.6c-30.9,0-55.9,25-55.9,55.9s25,55.9,55.9,55.9s55.9-25,55.9-55.9S95.2,7.6,64.3,7.6z"/>
	</g>
</g>
</svg>
