<?xml version="1.0" encoding="utf-8"?>
<!-- Generator: Adobe Illustrator 24.1.0, SVG Export Plug-In . SVG Version: 6.00 Build 0)  -->
<svg version="1.1" id="Layer_1" xmlns:sketch="http://www.bohemiancoding.com/sketch/ns"
	 xmlns="http://www.w3.org/2000/svg" xmlns:xlink="http://www.w3.org/1999/xlink" x="0px" y="0px" viewBox="0 0 128 128"
	 style="enable-background:new 0 0 128 128;" xml:space="preserve">
<style type="text/css">
	.st0{fill-rule:evenodd;clip-rule:evenodd;fill:#FFFFFF;}
</style>
<g id="Page-1">
	<g id="Mail">
		<path id="Oval-1" class="st0" d="M64,0C28.7,0,0,28.7,0,64s28.7,64,64,64s64-28.7,64-64S99.3,0,64,0z M64,7.7
			C32.9,7.7,7.7,32.9,7.7,64s25.2,56.3,56.3,56.3s56.3-25.2,56.3-56.3S95.1,7.7,64,7.7z M94.7,81.8V43.5L72.4,65.2L94.7,81.8z
			 M33.3,81.8l22.4-16.6L33.3,43.5V81.8z M58.7,68.1L33.3,84.5h61.4L69.3,68.1L64,73.3L58.7,68.1z M35.1,43.5L64,66.7l28.9-23.2
			C92.9,43.5,35.1,43.5,35.1,43.5z"/>
	</g>
</g>
</svg>
