<?xml version="1.0" encoding="utf-8"?>
<!-- Generator: Adobe Illustrator 24.1.0, SVG Export Plug-In . SVG Version: 6.00 Build 0)  -->
<svg version="1.1" id="Layer_1" xmlns="http://www.w3.org/2000/svg" xmlns:xlink="http://www.w3.org/1999/xlink" x="0px" y="0px"
	 viewBox="0 0 128 128" style="enable-background:new 0 0 128 128;" xml:space="preserve">
<style type="text/css">
	.st0{fill:#FEBB01;}
	.st1{fill-rule:evenodd;clip-rule:evenodd;fill:#FEBB01;}
</style>
<g>
	<path class="st0" d="M76.2,39c7.7,0,14,6.3,14,14v24c0,7.7-6.3,14-14,14h-24c-7.7,0-14-6.3-14-14V53c0-7.7,6.3-14,14-14H76.2
		 M76.2,34h-24c-10.5,0-19,8.5-19,19v24c0,10.5,8.5,19,19,19h24c10.5,0,19-8.5,19-19V53C95.2,42.5,86.7,34,76.2,34z"/>
	<path class="st0" d="M80.7,44.7c-2,0-3.6,1.6-3.6,3.6s1.6,3.6,3.6,3.6s3.6-1.6,3.6-3.6C84.4,46.4,82.8,44.7,80.7,44.7L80.7,44.7z"
		/>
	<path class="st0" d="M64.4,53.9c6.2,0,11.2,5,11.2,11.2s-5,11.2-11.2,11.2s-11.2-5-11.2-11.2l0,0C53.2,58.9,58.2,53.9,64.4,53.9
		 M64.4,48.8c-9,0-16.2,7.3-16.2,16.3s7.3,16.2,16.3,16.2S80.7,74,80.7,65C80.7,56.1,73.4,48.8,64.4,48.8L64.4,48.8z"/>
</g>
<g id="Page-1_1_">
	<g id="Mail_1_">
		<path id="Oval-1_1_" class="st1" d="M64.5,1C29.5,1,1,29.5,1,64.5S29.5,128,64.5,128S128,99.5,128,64.5S99.5,1,64.5,1z M64.5,8.6
			c-30.9,0-55.9,25-55.9,55.9s25,55.9,55.9,55.9s55.9-25,55.9-55.9S95.4,8.6,64.5,8.6z"/>
	</g>
</g>
</svg>
