<?xml version="1.0" encoding="utf-8"?>
<!-- Generator: Adobe Illustrator 24.1.0, SVG Export Plug-In . SVG Version: 6.00 Build 0)  -->
<svg version="1.1" id="Layer_1" xmlns="http://www.w3.org/2000/svg" xmlns:xlink="http://www.w3.org/1999/xlink" x="0px" y="0px"
	 viewBox="0 0 128 128" style="enable-background:new 0 0 128 128;" xml:space="preserve">
<style type="text/css">
	.st0{fill-rule:evenodd;clip-rule:evenodd;fill:#FEBB01;}
</style>
<path class="st0" d="M64.5,1C29.5,1,1,29.5,1,64.5S29.5,128,64.5,128S128,99.5,128,64.5S99.5,1,64.5,1z M51.8,88.2h-9.7V53.8h9.7
	V88.2z M46.9,51.5c-2.7,0-4.9-2.2-4.9-4.9c0-2.7,2.2-4.9,4.9-4.9c2.7,0,4.9,2.2,4.9,4.9C51.8,49.3,49.6,51.5,46.9,51.5z M86.2,88.1
	h-9.8V68.3c0,0,0-4.7-4.6-4.7c-4.6,0-5.1,3.3-5.1,4.9v19.7h-9.9V53.8h9.9v5.1c0-0.3,0.1-5.1,8.4-5.1c5.6,0,11.1,2.8,11.1,12.9V88.1z
	"/>
</svg>
