<?xml version="1.0" encoding="utf-8"?>
<!-- Generator: Adobe Illustrator 24.1.0, SVG Export Plug-In . SVG Version: 6.00 Build 0)  -->
<svg version="1.1" id="Layer_1" xmlns="http://www.w3.org/2000/svg" xmlns:xlink="http://www.w3.org/1999/xlink" x="0px" y="0px"
	 viewBox="0 0 128 128" style="enable-background:new 0 0 128 128;" xml:space="preserve">
<style type="text/css">
	.st0{fill-rule:evenodd;clip-rule:evenodd;fill:#14f501;}
	.st1{fill:#5834B3;}
</style>
<g id="Page-1_1_">
	<g id="Mail_1_">
		<path id="Oval-1_1_" class="st0" d="M64.3,0C29.3,0,0.8,28.5,0.8,63.5S29.3,127,64.3,127s63.5-28.5,63.5-63.5S99.3,0,64.3,0z"/>
	</g>
</g>
<g>
	<path class="st1" d="M76,38C83.7,38,90,44.3,90,52V76C90,83.7,83.7,90,76,90H52C44.3,90,38,83.7,38,76V52C38,44.3,44.3,38,52,38H76
		 M76,33H52c-10.5,0-19,8.5-19,19V76c0,10.5,8.5,19,19,19H76c10.5,0,19-8.5,19-19V52C95,41.5,86.5,33,76,33z"/>
	<path class="st1" d="M80.5,43.7c-2,0-3.6,1.6-3.6,3.6c0,2,1.6,3.6,3.6,3.6c2,0,3.6-1.6,3.6-3.6C84.2,45.4,82.6,43.7,80.5,43.7
		L80.5,43.7z"/>
	<path class="st1" d="M64.2,52.9c6.2,0,11.2,5,11.2,11.2s-5,11.2-11.2,11.2c-6.2,0-11.2-5-11.2-11.2c0,0,0,0,0,0
		C53,57.9,58,52.9,64.2,52.9 M64.2,47.8c-9,0-16.2,7.3-16.2,16.3c0,9,7.3,16.2,16.3,16.2c9,0,16.2-7.3,16.2-16.3
		C80.5,55.1,73.2,47.8,64.2,47.8C64.2,47.8,64.2,47.8,64.2,47.8z"/>
</g>
</svg>
