<?xml version="1.0" encoding="utf-8"?>
<!-- Generator: Adobe Illustrator 24.1.0, SVG Export Plug-In . SVG Version: 6.00 Build 0)  -->
<svg version="1.1" id="Layer_1" xmlns="http://www.w3.org/2000/svg" xmlns:xlink="http://www.w3.org/1999/xlink" x="0px" y="0px"
	 viewBox="0 0 135.7 124.4" style="enable-background:new 0 0 135.7 124.4;" xml:space="preserve">
<style type="text/css">
	.st0{fill:#111111;}
</style>
<g>
	<g>
		<g>
			<g>
				<g>
					<path class="st0" d="M50.3,10.5c-2,0.4-7.1,1.9-9.7,2.6c-2.6,0.7-5.1,1.5-7.8,2.6c-2.6,1-5.2,2.1-7.8,3.5
						c-2.5,1.2-4.7,2.7-6.6,4.3c-1.9,1.6-3.3,3.2-4.3,5c-1,1.8-1.2,3.7-0.8,5.9c0.4,1.9,1,3.4,1.8,4.5c0.8,1.2,1.6,2,2.4,2.6
						c0.8,0.6,1.5,0.8,2.1,0.7c0.6,0,0.8-0.3,0.7-0.9c-0.1-0.6-0.4-1-0.7-1.3c-0.4-0.3-0.8-0.6-1.3-0.9c-0.5-0.3-1-0.7-1.4-1.3
						c-0.5-0.6-0.8-1.4-1-2.5c-0.2-1,0.4-2.1,1.8-3.2c1.4-1.2,3.3-2.4,5.6-3.5c2.4-1.2,5-2.4,7.9-3.5s5.9-2.1,8.8-2.8
						c0.2,2.5,0.5,5.4,0.8,9c0.2,3.5,0.4,7.3,0.4,11.4s-0.1,8.2-0.3,12.7c-0.2,4.3-0.7,8.7-1.3,13c-1.6,0.9-3.5,2.1-5.5,3.6
						c-2,1.5-4,3.2-6.1,5.2c-2.1,2-4.1,4-6.1,6.4c-2,2.3-3.9,4.8-5.6,7.4c-0.6,0.9-1.2,1.9-1.7,3s-1,2.1-1.2,2.9
						c-0.2,0.7-0.1,1.2,0.4,1.5c0.5,0.3,1,0.1,1.6-0.9c0.8-1.2,2-2.9,3.5-4.9c1.5-2,3.2-4.1,5.2-6.4c2-2.2,4.2-4.5,6.7-6.8
						c2.5-2.3,5.2-4.4,8.1-6.2c-0.7,3.9-1.6,7.5-2.8,11.1c-1.2,3.5-2.5,6.7-4.1,9.4c-1.6,2.7-3.5,5-5.8,6.8
						c-2.2,1.8-4.8,3.1-7.6,3.6c-1.1,0.2-1.8,0.2-2.3-0.2c-0.5-0.3-0.8-0.8-1.1-1.3c-0.2-0.5-0.4-1-0.6-1.4c-0.2-0.4-0.5-0.6-1-0.5
						c-1.2,0.2-1.6,0.9-1.6,1.9c0.1,1.1,0.7,2.1,1.7,3.2c1.1,1.1,2.7,1.9,4.8,2.6c2.1,0.6,4.6,0.7,7.5,0c3.9-0.8,7.3-2.5,10.1-5
						c2.8-2.6,5.3-5.8,7.3-9.5c2-3.8,3.6-8,4.8-12.5c1.2-4.6,2.1-9.3,2.7-14.2c0.7-4.9,1.1-9.7,1.2-14.7c0.2-4.9,0.2-9.4,0.1-13.7
						C52.1,34.5,50.7,13.5,50.3,10.5z"/>
					<path class="st0" d="M95.4,43.4c0.4-0.2,0.8-0.3,1.2-0.2s0.6,0.5,0.7,1c0.1,0.5,0,1.2-0.4,1.8c0,0.2-0.4,1.2-1.2,2.8
						c-0.7,1.6-1.7,3.6-3,5.9c-1.3,2.3-2.8,4.9-4.5,7.6s-3.5,5.3-5.6,7.7c-2.1,2.4-4.2,4.5-6.5,6.3c-2.3,1.8-4.7,3-7.1,3.5
						c-1.7,0.3-3.4,0.2-4.9-0.2c-1.6-0.5-3.1-1.3-4.5-2.4s-2.6-2.4-3.5-4c-1-1.6-1.6-3.3-2-5.1c-0.5-2.3-0.4-4.9,0.2-7.9
						c0.6-3,1.5-5.9,2.6-9c1.2-3.1,2.6-6.1,4.2-9c1.6-3,3.3-5.6,4.9-8c1.6-2.4,3.2-4.3,4.7-5.9c1.5-1.5,2.6-2.4,3.5-2.6
						c1.2-0.2,2.3-0.2,3.6-0.1c1.2,0.2,2.5,0.7,3.5,1.6c1.1,0.8,2.1,2,3,3.5c0.9,1.5,1.6,3.4,2.1,5.6c0.5,2.2,0.2,4.9-0.8,8.2
						c-1.1,3.1-2.5,6.2-4.5,9.2c-1.9,3-4.1,5.6-6.7,7.8c-2.6,2.3-5,3.7-7.7,4.2c-0.5,0.1-1,0.2-1.4,0.2c-0.5,0-0.9,0-1.3-0.1
						c-0.2,0.5-0.2,1.3-0.2,2.3s0.2,2,0.5,2.9c0.3,0.9,0.8,1.6,1.5,2.3c0.7,0.7,1.6,0.8,2.8,0.6c1.8-0.3,3.6-1.2,5.5-2.7
						c1.9-1.4,3.7-3.1,5.6-5c1.8-1.9,3.5-4,5.2-6.4c1.6-2.3,3.1-4.4,4.5-6.4c1.3-2,2.4-3.7,3.2-5.2c0.8-1.5,1.4-2.5,1.6-2.9
						C94.5,44.3,95,43.7,95.4,43.4z M77.1,37c-1.3,1.9-2.8,4.3-4.4,7.2s-3.1,5.9-4.5,9.2c-1.5,3.3-2.6,6.4-3.5,9.3
						c0.2-0.1,0.5-0.1,0.7-0.1c0.2,0,0.5,0,0.7-0.1c1.7-0.3,3.5-1.6,5.4-3.5c1.9-2.1,3.6-4.5,5.2-7.3c1.5-2.8,2.7-5.7,3.5-8.7
						c0.8-3,1.1-5.5,0.6-7.7c-0.2-1.1-0.6-1.5-1.1-1.4C79.4,34.1,78.4,35.1,77.1,37z"/>
					<path class="st0" d="M101.1,53.4c1.2,0.9,2.8,1.7,4.6,2.6c1.8,0.9,3.7,1.7,5.9,2.6c2.1,0.8,4,1.6,5.8,2.5
						c1.7,0.8,3.3,1.6,4.5,2.2c1.2,0.7,1.9,1.3,2.1,1.8c0.1,0.2-0.2,0.7-0.6,1.2c-0.4,0.6-1.2,1.2-2.6,2.1c-1.2,0.7-3.1,1.6-5.3,2.3
						c-2.2,0.8-5.2,1.6-8.8,2.3c-3.6,0.7-6.5,0.8-8.7,0.3c-2.1-0.5-3.9-1.2-5-2.2c-1.2-1-1.9-1.9-2.1-2.9c-0.2-0.9-0.2-1.4,0.2-1.5
						c0.4-0.1,0.7,0,1,0.3c0.2,0.2,0.7,0.6,1.1,1c0.5,0.3,1.1,0.7,1.7,0.8c0.7,0.2,1.7,0.2,3-0.1c2.6-0.6,4.9-1.2,6.6-1.9
						c1.7-0.7,3.1-1.4,4.2-2.1c1.2-0.7,2.1-1.4,2.7-2.2c-3.5-1.5-6.7-3.1-9.4-4.8c-2.4-1.4-4.7-3.1-6.8-4.7
						c-2.1-1.7-3.4-3.5-3.8-5.4c-0.2-1.2-0.1-2.6,0.5-4.5c0.6-1.9,1.4-4,2.4-6.2c1-2.2,2.1-4.5,3.5-6.8c1.3-2.3,2.6-4.5,4-6.4
						c1.3-1.9,2.5-3.5,3.5-4.8c1.1-1.2,1.9-2,2.5-2.1c0.9-0.2,1.9-0.2,3,0c1.1,0.2,2.1,0.5,3.1,1c1,0.5,1.9,1.1,2.7,1.7
						c0.7,0.7,1.2,1.4,1.4,2.2c0.1,0.5,0,1.5-0.2,3.1c-0.2,1.6-0.7,3.3-1.2,5.3s-1,4-1.6,6.3c-0.6,2.2-1.2,4.2-1.6,6.2
						c-0.5,1.9-0.9,3.5-1.2,4.9c-0.3,1.4-0.4,2.2-0.3,2.6c0.2,0.8,0.1,1.3-0.2,1.4c-0.3,0.2-0.7,0-1.3-0.4c-0.6-0.4-1.1-1.1-1.6-2
						c-0.5-0.8-0.9-1.9-1.2-3.1c-0.2-1.2-0.2-2.6-0.1-4.4c0.2-1.7,0.4-3.4,0.7-5.1c0.4-1.8,0.8-3.8,1.5-5.8
						c-2.1,2.9-4.1,5.6-5.8,8.2c-1.5,2.2-2.7,4.5-3.9,6.8c-1.1,2.2-1.5,4-1.3,5C99.1,51.7,99.8,52.5,101.1,53.4z"/>
				</g>
				<g>
					<path class="st0" d="M114.4,82.1c-0.1-0.6-2.6-0.9-7.6-1c-4.9-0.1-12.1,0.7-21.5,2.3c-2,0.3-4.2,0.8-6.8,1.4
						c-2.6,0.6-5.2,1.4-7.9,2.3c-2.7,0.9-5.3,2-7.8,3.1c-2.6,1.2-4.8,2.6-6.7,4c-1.9,1.5-3.4,3.1-4.5,4.9c-1.1,1.7-1.4,3.7-1,5.9
						c0.3,1.9,0.9,3.4,1.6,4.5c0.7,1.2,1.6,2.1,2.3,2.6c0.7,0.6,1.4,0.8,2.1,0.8c0.6,0,0.8-0.3,0.7-0.9c-0.1-0.6-0.3-1-0.7-1.3
						c-0.4-0.3-0.8-0.7-1.3-1c-0.5-0.3-0.9-0.8-1.4-1.4c-0.4-0.6-0.7-1.4-0.9-2.5c-0.2-1,0.5-2.1,1.9-3.1c1.4-1.2,3.4-2.2,5.8-3.4
						c2.4-1.2,5.1-2.1,8.1-3.2c3-1,19.6-5.4,27.6-5.2c2.6,0.1,4.8-0.3,6.8-0.4c2.1-0.1,3.7-0.2,5-0.2s2.1,0,2.3-0.1
						c0.8-0.2,1.5-0.6,2.1-1.3c0.6-0.7,1-1.6,1.2-2.6c0.3-0.9,0.5-1.8,0.6-2.6C114.5,83.1,114.5,82.5,114.4,82.1z"/>
				</g>
			</g>
		</g>
		<path class="st0" d="M15,93.1c0,0-5.5,8.7-1.8,12.1s3.1-1.4,3.1-1.4c0.2,0.2-3.7-2.3,0-7.9C19.8,90.6,15,93.1,15,93.1z"/>
	</g>
</g>
</svg>
